<?xml version="1.0" standalone="no"?>
<!DOCTYPE svg PUBLIC "-//W3C//DTD SVG 20010904//EN"
 "http://www.w3.org/TR/2001/REC-SVG-20010904/DTD/svg10.dtd">
<svg version="1.0" xmlns="http://www.w3.org/2000/svg"
 width="720.000000pt" height="960.000000pt" viewBox="0 0 720.000000 960.000000"
 preserveAspectRatio="xMidYMid meet">

<g transform="translate(0.000000,960.000000) scale(0.100000,-0.100000)"
fill="#000000" stroke="none">
<path d="M0 8611 c0 -963 0 -989 19 -984 21 5 44 -16 94 -86 l32 -43 3 61 c3
60 3 61 33 61 l30 0 -2 -110 c-1 -109 -2 -110 -25 -110 -17 0 -37 17 -71 60
l-48 60 -5 -58 c-5 -53 -7 -57 -32 -60 l-28 -3 0 -170 0 -169 54 0 c31 0 58
-5 63 -12 6 -7 27 -62 48 -122 30 -84 41 -105 49 -94 6 8 46 60 90 116 l78
102 74 0 c41 0 74 -3 74 -7 0 -5 -21 -115 -46 -245 l-46 -238 -85 0 c-69 0
-84 3 -80 14 11 29 30 137 24 142 -3 3 -11 -5 -18 -18 -6 -12 -25 -40 -42 -61
-26 -34 -34 -38 -69 -35 -39 3 -41 4 -66 68 l-26 64 -11 -44 c-6 -25 -14 -62
-18 -82 l-6 -38 95 0 c62 0 94 -4 94 -11 0 -8 -35 -10 -115 -8 l-115 4 0
-1127 0 -1128 40 0 c22 0 40 5 40 10 0 6 4 10 9 10 12 0 71 -59 71 -71 0 -5 4
-9 9 -9 21 0 71 -62 67 -83 -1 -12 -1 -16 1 -9 5 14 83 17 83 2 0 -5 6 -7 13
-5 14 5 67 -38 67 -55 0 -5 9 -10 20 -10 26 0 60 -34 60 -60 0 -17 7 -20 45
-20 38 0 50 5 74 32 40 45 53 31 45 -49 -9 -82 10 -83 42 -3 l22 54 7 -32 c6
-30 9 -32 50 -32 l44 0 -6 38 c-3 20 -2 34 2 30 4 -4 9 -18 11 -30 14 -91 18
-109 30 -119 28 -23 14 -56 -21 -49 -5 1 4 -13 20 -30 26 -27 30 -37 27 -79
-3 -44 -1 -50 42 -96 36 -37 46 -56 46 -82 0 -23 5 -33 15 -33 13 0 15 -20 15
-120 0 -73 4 -120 10 -120 6 0 10 -33 10 -80 0 -79 0 -80 25 -80 23 0 25 -4
25 -40 0 -22 -4 -40 -10 -40 -5 0 -10 -18 -10 -40 0 -22 5 -40 10 -40 6 0 10
-18 10 -40 0 -22 -4 -40 -10 -40 -6 0 -10 -53 -10 -138 0 -123 2 -138 19 -149
15 -9 17 -20 13 -62 -3 -34 -1 -51 7 -51 6 0 11 -17 11 -40 0 -29 4 -40 15
-40 8 0 15 -9 15 -20 0 -12 5 -17 13 -14 24 9 41 -25 38 -77 -2 -39 1 -49 14
-49 11 0 15 -11 15 -40 0 -29 4 -40 15 -40 11 0 15 -11 15 -40 0 -30 4 -40 16
-40 8 0 13 -4 10 -9 -4 -5 0 -12 6 -15 7 -4 -11 -4 -39 -2 -29 3 -53 1 -53 -4
0 -5 28 -10 63 -12 34 -2 -53 -7 -193 -12 -587 -20 -537 -24 215 -20 429 2
1050 8 1380 14 990 16 1053 16 1065 4 19 -19 22 -80 5 -94 -8 -7 -15 -20 -15
-29 0 -10 -14 -39 -32 -67 -55 -86 -37 -147 44 -150 24 -1 55 -5 70 -9 15 -4
39 -4 52 -1 28 7 39 37 51 136 4 30 13 69 19 85 17 42 10 61 -27 73 -32 10
-32 10 -4 11 15 1 27 6 27 12 0 5 -3 8 -8 6 -4 -3 -16 -1 -27 4 -17 7 -17 8 8
8 27 1 36 14 17 26 -11 7 -2 35 11 35 5 0 9 -7 9 -15 0 -13 21 -15 129 -15
144 0 149 -2 152 -65 1 -22 9 -55 17 -73 14 -26 14 -36 4 -52 -16 -26 -15 -55
2 -69 14 -12 77 -136 90 -178 9 -27 62 -73 84 -73 9 0 36 7 59 15 23 8 49 12
57 9 21 -8 39 32 32 71 -4 18 -20 48 -35 66 -16 18 -48 71 -71 116 -38 76 -44
83 -71 83 -19 0 -28 4 -23 11 3 6 15 9 25 6 10 -3 22 -1 25 4 3 5 -4 9 -16 9
-12 0 -18 5 -15 10 3 6 14 10 23 10 24 1 63 81 50 103 -5 10 -7 25 -5 35 4 15
6 14 12 -4 6 -20 10 -20 398 -16 216 2 624 5 907 7 291 3 532 9 555 14 35 9
31 10 -30 6 -111 -8 -406 -8 -448 0 -20 4 -37 11 -37 16 0 5 -20 9 -45 9 -25
0 -45 4 -45 8 0 13 -85 52 -125 59 -25 4 -35 11 -35 24 0 15 -7 19 -34 19 -41
0 -46 10 -46 100 0 83 -7 105 -26 89 -12 -9 -13 -6 -8 20 6 27 3 32 -22 42
l-29 12 38 11 c42 13 40 27 -2 22 -14 -2 -20 -1 -13 1 15 5 16 43 1 43 -5 0
-8 -4 -4 -9 3 -5 1 -12 -5 -16 -6 -4 -10 19 -10 64 0 67 -12 93 -26 56 -4 -8
-17 -15 -30 -15 -19 0 -24 5 -24 24 0 13 7 26 15 30 8 3 15 10 15 16 0 5 -7
10 -15 10 -12 0 -15 16 -15 80 l0 80 40 0 c33 0 40 -3 40 -20 0 -24 13 -26 30
-5 17 21 11 25 -49 32 -50 6 -51 6 -51 39 0 32 2 34 35 34 34 0 35 1 35 39 0
29 -5 40 -17 43 -15 3 -15 4 0 17 15 12 17 11 17 -3 0 -9 6 -16 13 -16 9 0 11
21 9 80 l-4 80 31 0 31 0 0 80 c0 47 -4 80 -10 80 -5 0 -10 18 -10 40 0 22 5
40 10 40 6 0 10 18 10 40 0 22 5 40 10 40 6 0 10 26 10 58 1 49 2 55 14 40 21
-29 36 -21 37 20 l2 37 7 -40 7 -40 2 43 c1 34 4 42 20 42 15 0 21 -8 24 -37
4 -36 4 -36 3 5 0 50 28 90 40 57 5 -11 3 -20 -4 -23 -14 -4 -16 -32 -2 -32
11 0 50 73 50 95 0 11 11 15 40 15 40 0 40 0 40 39 0 39 1 40 38 43 l37 3 -27
26 c-16 15 -28 31 -28 38 0 6 -7 11 -15 11 -29 0 -65 31 -65 56 0 21 5 24 35
24 22 0 38 -6 44 -17 10 -17 12 -17 25 0 10 13 28 17 75 17 l61 0 0 30 c0 28
2 30 40 30 23 0 40 5 40 11 0 8 14 10 40 6 l40 -5 0 54 0 54 40 0 c22 0 40 4
40 10 0 5 18 15 40 21 34 10 40 16 40 40 0 24 5 28 40 34 33 6 40 11 40 30 0
31 55 85 85 85 27 0 75 43 75 65 0 11 12 15 40 15 l40 0 0 40 0 40 40 0 40 0
0 40 0 40 40 0 40 0 0 120 c0 102 2 120 16 120 8 0 22 7 31 16 9 8 22 13 30
10 8 -3 30 -6 49 -6 22 0 34 -5 34 -13 0 -14 40 -37 64 -37 8 0 16 7 20 15 3
8 16 15 30 15 15 0 26 6 28 17 3 14 12 17 51 14 37 -2 47 1 47 13 0 9 6 15 13
14 7 -2 13 9 15 25 3 25 22 40 22 16 0 -6 7 -4 15 5 13 13 15 196 15 1525 l0
1510 -122 4 -123 3 123 2 122 2 0 187 0 187 -37 -35 c-87 -80 -163 -160 -163
-172 0 -6 -6 -24 -14 -38 -7 -14 -16 -38 -20 -53 -13 -51 -25 -55 -157 -59
l-124 -3 127 -2 c71 -1 130 -6 133 -12 7 -12 -111 -13 -360 -3 l-170 6 0 221
c0 122 -1 474 -3 784 l-2 562 -225 0 -225 0 -1 -137 c0 -76 0 -200 1 -275 1
-94 -2 -138 -9 -138 -7 0 -11 38 -11 113 0 61 -4 107 -8 100 -4 -6 -7 -131 -7
-277 0 -146 -2 -266 -5 -266 -4 0 -4 -16 -2 -35 l4 -35 -113 0 c-124 0 -951
36 -1036 46 -61 6 -57 -5 -58 174 0 86 -2 95 -18 92 -17 -3 -18 7 -17 130 1
73 1 217 1 321 l-1 187 -217 0 -218 0 -3 -693 c-1 -380 -2 -723 -2 -761 l0
-69 -81 6 c-44 3 -83 7 -85 10 -3 3 -5 131 -5 286 1 154 -1 281 -3 281 -2 0
-32 -9 -66 -20 -75 -24 -81 -24 -74 -5 4 9 15 12 33 9 19 -4 33 0 46 13 19 18
22 19 50 22 8 0 15 7 15 15 0 8 -7 16 -15 20 -10 3 -15 19 -15 46 0 23 -5 40
-11 40 -6 0 -9 -9 -6 -20 3 -11 1 -23 -4 -26 -5 -3 -9 6 -9 20 0 16 -5 24 -12
21 -10 -4 -12 9 -10 50 3 40 8 55 18 55 31 0 64 32 64 61 0 34 2 33 -43 14
-44 -18 -47 -18 -47 -2 0 33 -72 157 -120 204 -60 60 -182 126 -307 167 -45
15 -104 44 -131 63 -51 38 -117 125 -128 168 -4 18 -13 25 -30 25 -27 0 -29
-7 -12 -47 36 -81 125 -190 169 -205 37 -13 -14 -21 -153 -21 -158 -1 -228 11
-319 58 -17 9 -37 14 -46 11 -17 -7 -98 46 -107 69 -10 28 -6 31 12 9 25 -31
83 -69 76 -50 -3 8 -13 18 -22 21 -22 7 -79 83 -93 123 -8 24 -17 32 -35 32
-22 0 -24 -3 -18 -27 11 -45 77 -130 135 -174 54 -41 147 -89 173 -89 8 0 16
-5 18 -10 4 -13 219 -33 281 -26 26 3 47 2 47 -3 0 -4 -13 -20 -29 -35 -33
-32 -66 -101 -75 -161 l-7 -40 -168 -2 c-92 0 -184 -6 -205 -11 -33 -10 -39
-8 -62 16 -38 41 -168 241 -207 318 -33 66 -78 174 -92 221 -6 20 -12 23 -60
22 -61 -2 -61 -3 6 -77 19 -20 50 -71 68 -112 19 -41 39 -81 44 -88 6 -7 21
-36 34 -64 13 -29 39 -73 58 -100 31 -42 43 -68 32 -68 -2 0 -19 8 -38 17 -22
11 -58 17 -109 17 -80 -1 -139 -20 -212 -70 -32 -22 -44 -25 -85 -19 l-48 6
-2 -40 c-1 -34 2 -41 18 -41 10 0 19 -5 19 -11 0 -13 -20 -52 -31 -59 -4 -3
-9 -170 -11 -373 l-3 -367 -97 0 -96 0 4 573 c2 314 6 641 8 725 l4 152 -229
0 -229 0 0 -98 c0 -54 -3 -214 -7 -355 -5 -211 -9 -257 -21 -262 -10 -4 -13 0
-9 15 3 11 1 20 -4 20 -5 0 -9 -9 -9 -19 0 -11 -6 -22 -12 -25 -7 -4 2 -4 20
-1 23 3 32 1 32 -9 0 -18 -130 -20 -385 -6 -218 12 -540 28 -700 35 -172 8
-218 15 -204 31 6 8 8 14 4 14 -4 0 -3 6 4 13 16 20 17 162 1 182 -10 12 -11
21 -3 34 7 11 7 37 1 81 -5 36 -7 129 -3 207 l7 141 -141 1 -141 2 0 -990z
m2925 769 c3 -5 1 -10 -4 -10 -6 0 -11 5 -11 10 0 6 2 10 4 10 3 0 8 -4 11
-10z m1724 -125 c0 -5 -4 -3 -9 5 -5 8 -9 22 -9 30 0 16 17 -16 18 -35z m-951
-22 c77 -39 166 -123 196 -186 44 -94 44 -94 -16 -111 -29 -8 -77 -16 -107
-18 -54 -3 -55 -3 -62 29 -26 126 -184 150 -246 38 -8 -13 -17 -12 -73 7 -36
13 -68 27 -71 32 -9 11 13 103 33 141 21 40 44 59 98 85 64 30 170 23 248 -17z
m-1938 17 c0 -5 -5 -10 -11 -10 -5 0 -7 5 -4 10 3 6 8 10 11 10 2 0 4 -4 4
-10z m680 -200 c0 -5 -5 -10 -11 -10 -5 0 -7 5 -4 10 3 6 8 10 11 10 2 0 4 -4
4 -10z m3507 -32 c-3 -8 -6 -5 -6 6 -1 11 2 17 5 13 3 -3 4 -12 1 -19z m-2802
2 c8 -13 -15 -13 -35 0 -12 8 -11 10 7 10 12 0 25 -4 28 -10z m55 0 c0 -5 -2
-10 -4 -10 -3 0 -8 5 -11 10 -3 6 -1 10 4 10 6 0 11 -4 11 -10z m-170 -10
c-25 -5 -63 -8 -85 -8 -37 0 -37 1 -10 7 17 3 55 7 85 8 l55 1 -45 -8z m-215
-55 c60 -59 67 -74 33 -76 -13 -1 -38 -3 -57 -5 -43 -5 -37 3 9 11 19 3 36 8
39 11 6 6 -50 5 -76 -2 -19 -5 -20 -9 -11 -30 6 -13 14 -24 18 -24 4 0 15 -18
25 -39 12 -27 25 -40 44 -44 14 -3 34 -9 44 -12 13 -6 17 -2 17 17 0 13 6 30
13 37 10 10 8 15 -7 27 -11 8 -16 14 -12 14 5 0 3 7 -4 15 -6 8 -9 19 -6 24 4
5 2 12 -4 16 -5 3 -10 13 -10 22 0 11 5 9 19 -8 12 -15 15 -26 9 -30 -6 -4 -1
-10 11 -14 12 -3 19 -10 16 -15 -3 -4 2 -11 10 -14 8 -3 14 -11 13 -17 -2 -6
3 -14 11 -17 10 -3 13 1 8 17 -5 19 -1 21 43 21 26 0 63 3 81 6 26 4 30 3 19
-5 -8 -6 -41 -11 -72 -11 -34 0 -58 -4 -58 -11 0 -5 14 -32 32 -59 32 -49 33
-49 73 -43 22 3 47 12 56 19 21 19 29 17 29 -6 0 -13 -7 -20 -20 -20 -16 0
-20 -7 -20 -30 0 -25 -4 -30 -25 -30 l-25 0 31 -59 c43 -86 93 -235 80 -239
-15 -5 -14 -65 1 -80 9 -9 9 -12 1 -12 -15 0 -25 16 -33 54 -4 24 -11 31 -30
31 -13 0 -25 6 -28 13 -2 7 5 12 18 12 15 0 20 5 18 18 -2 9 -9 16 -16 15 -6
-2 -9 4 -6 12 8 19 -5 19 -30 0 -14 -11 -16 -15 -5 -15 8 0 10 -3 4 -8 -19
-13 -16 -41 6 -52 36 -20 12 -23 -40 -5 -43 14 -51 21 -51 41 0 13 -5 24 -11
24 -5 0 -8 4 -4 9 3 5 -8 24 -25 43 -17 18 -37 52 -46 75 -9 23 -19 41 -23 39
-3 -1 -21 15 -40 36 -24 28 -29 38 -17 38 9 0 25 -9 36 -20 20 -20 20 -20 39
-1 10 10 25 21 32 24 10 3 7 12 -13 31 -16 15 -28 30 -28 34 0 9 -50 32 -69
32 -12 0 -17 -13 -18 -55 -3 -65 -22 -107 -74 -158 -45 -44 -46 -54 -20 -106
22 -43 38 -57 66 -63 14 -2 22 -14 26 -43 4 -22 3 -44 -2 -49 -5 -6 -9 -20 -9
-33 0 -13 -4 -23 -9 -23 -13 0 -107 177 -116 217 -8 42 -14 44 -59 32 -43 -12
-115 -2 -81 11 11 5 30 6 43 3 12 -3 22 0 22 6 0 6 -19 12 -42 12 l-43 1 53 9
c85 14 124 42 171 119 27 46 26 60 -4 60 -14 0 -25 5 -25 10 0 6 11 10 25 10
28 0 32 20 15 66 -16 42 -48 64 -92 64 -64 0 -117 -40 -118 -89 0 -40 -11 -17
-14 30 -2 38 2 48 28 72 28 26 64 38 51 17 -3 -5 1 -10 10 -10 9 0 14 4 11 9
-4 5 0 12 6 15 7 3 -6 5 -29 3 -24 -1 -43 0 -43 4 0 9 -95 28 -177 35 -40 4
-73 9 -73 12 0 3 10 21 23 39 l22 33 160 3 c88 1 179 4 202 5 40 2 47 -2 98
-53z m828 23 c9 -11 17 -29 17 -39 0 -16 -5 -18 -27 -13 -16 4 -30 11 -31 16
-8 19 -42 29 -63 18 -18 -10 -20 -9 -17 6 4 25 47 45 78 39 14 -3 33 -15 43
-27z m-570 15 c-7 -2 -19 -2 -25 0 -7 3 -2 5 12 5 14 0 19 -2 13 -5z m2879
-110 c-9 -35 -10 -31 -10 37 0 68 1 72 10 38 7 -25 7 -51 0 -75z m-2879 90
c-7 -2 -19 -2 -25 0 -7 3 -2 5 12 5 14 0 19 -2 13 -5z m-120 -10 c-7 -2 -19
-2 -25 0 -7 3 -2 5 12 5 14 0 19 -2 13 -5z m314 -29 c25 -60 27 -59 -148 -73
-89 -7 -162 -11 -163 -9 -1 2 -17 22 -35 45 -23 31 -29 44 -19 48 19 7 245 22
303 20 44 -1 50 -4 62 -31z m168 -21 c22 -3 50 -13 63 -21 15 -10 36 -13 62
-9 22 3 40 2 40 -3 0 -4 9 -10 20 -13 47 -12 6 -77 -60 -94 -42 -11 -110 0
-146 24 -35 22 -84 90 -84 116 0 17 5 19 33 13 17 -4 50 -9 72 -13z m-1008
-19 c-3 -3 -12 -4 -19 -1 -8 3 -5 6 6 6 11 1 17 -2 13 -5z m2279 -10 c-3 -9
-6 -18 -6 -20 0 -3 -4 -3 -10 1 -11 7 -2 35 12 35 6 0 7 -7 4 -16z m-776 -52
c-10 -76 -18 -102 -36 -102 -8 0 -13 -5 -11 -11 1 -6 -4 -14 -12 -16 -9 -4
-11 0 -6 16 6 19 2 21 -32 21 -37 0 -83 9 -130 24 -14 4 -23 3 -23 -3 0 -5 27
-15 60 -22 33 -6 59 -14 56 -16 -9 -10 -117 19 -123 32 -2 8 3 33 13 55 18 41
19 41 64 36 33 -5 62 0 110 18 36 13 68 24 71 25 3 1 2 -25 -1 -57z m-3420 33
c251 -9 942 -45 968 -51 22 -4 23 -5 18 -152 -3 -81 -6 -225 -8 -320 l-2 -172
-106 5 c-95 5 -234 10 -895 31 -110 4 -207 10 -215 15 -13 7 -13 8 1 9 13 0
18 14 22 62 6 66 2 82 -13 58 -6 -10 -10 23 -11 95 -1 61 -1 114 0 119 1 5 2
55 2 110 0 56 5 125 10 154 10 50 12 53 37 48 15 -3 101 -8 192 -11z m-283
-122 c-2 -21 -4 -4 -4 37 0 41 2 58 4 38 2 -21 2 -55 0 -75z m2981 100 c-16
-2 -40 -2 -55 0 -16 2 -3 4 27 4 30 0 43 -2 28 -4z m1491 -55 c-1 -60 -2 -61
-10 -23 -11 55 -11 85 1 85 6 0 10 -27 9 -62z m1260 -23 c0 -23 -2 -26 -9 -15
-5 8 -9 33 -9 55 1 35 2 37 9 15 4 -14 8 -38 9 -55z m-2929 35 c0 -5 -2 -10
-4 -10 -3 0 -8 5 -11 10 -3 6 -1 10 4 10 6 0 11 -4 11 -10z m-510 -10 c0 -5
-2 -10 -4 -10 -3 0 -8 5 -11 10 -3 6 -1 10 4 10 6 0 11 -4 11 -10z m-32 -29
c4 -11 -2 -12 -24 -7 -45 11 -55 28 -15 24 19 -2 37 -9 39 -17z m562 9 c0 -5
-2 -10 -4 -10 -3 0 -8 5 -11 10 -3 6 -1 10 4 10 6 0 11 -4 11 -10z m325 -71
c-7 -26 -26 -62 -43 -80 l-30 -32 -37 39 c-38 41 -55 73 -55 104 0 18 2 18 46
2 l46 -17 -4 -47 c-2 -25 0 -44 5 -41 4 2 7 22 7 43 0 21 9 55 21 74 19 32 22
34 38 19 17 -14 17 -20 6 -64z m-1497 64 c-10 -2 -26 -2 -35 0 -10 3 -2 5 17
5 19 0 27 -2 18 -5z m477 -3 c4 -6 -11 -10 -39 -10 -25 0 -48 5 -51 10 -4 6
11 10 39 10 25 0 48 -4 51 -10z m1645 3 c0 -5 -5 -15 -10 -23 -8 -12 -10 -11
-10 8 0 12 5 22 10 22 6 0 10 -3 10 -7z m-510 -48 c7 8 18 15 24 15 6 0 3 -5
-6 -11 -10 -5 -18 -19 -18 -30 0 -34 -19 -59 -46 -59 -14 0 -23 4 -20 9 3 4 6
31 7 59 l2 50 22 -24 c20 -21 24 -22 35 -9z m-842 13 c20 -20 14 -45 -15 -66
-42 -30 -100 -19 -128 24 -12 19 -14 29 -6 37 8 8 11 6 11 -7 0 -9 5 -14 10
-11 6 4 18 1 27 -7 15 -11 16 -11 10 5 -5 12 -1 17 13 17 11 0 20 5 20 10 0
14 43 13 58 -2z m-1131 -65 c-2 -16 -4 -5 -4 22 0 28 2 40 4 28 2 -13 2 -35 0
-50z m30 35 c-3 -7 -5 -2 -5 12 0 14 2 19 5 13 2 -7 2 -19 0 -25z m843 -8 c0
-5 -22 -10 -49 -10 -28 0 -53 5 -56 10 -4 6 15 10 49 10 31 0 56 -4 56 -10z
m-2163 -42 c-3 -8 -6 -5 -6 6 -1 11 2 17 5 13 3 -3 4 -12 1 -19z m3630 -25 c7
-20 -26 -22 -79 -6 -62 19 -62 19 -54 31 7 12 128 -10 133 -25z m1483 16 c129
-6 296 -13 370 -16 89 -3 140 -9 150 -18 8 -7 24 -15 35 -17 19 -3 20 -12 23
-152 2 -101 -1 -153 -9 -162 -7 -8 -7 -14 -2 -14 6 0 11 -25 12 -55 1 -52 0
-55 -24 -55 -14 0 -25 -4 -25 -10 0 -5 7 -7 15 -4 8 4 15 1 15 -5 0 -6 -6 -11
-14 -11 -8 0 -18 -5 -22 -11 -5 -8 1 -10 18 -6 32 8 41 -1 21 -21 -14 -14 -14
-17 3 -24 22 -10 -964 0 -1111 11 -55 4 -84 8 -64 9 36 2 37 3 40 45 2 23 -1
76 -7 117 -6 41 -12 69 -13 61 -2 -30 -12 -1 -16 48 -3 29 0 51 5 51 6 0 10
-13 10 -30 0 -16 5 -30 10 -30 6 0 10 30 10 70 0 39 -4 70 -9 70 -5 0 -12 21
-17 48 -12 71 -11 92 3 103 17 14 178 27 278 22 44 -2 186 -9 315 -14z m-3055
-29 c10 -11 14 -20 9 -20 -5 0 -17 9 -27 20 -9 11 -13 20 -8 20 4 0 16 -9 26
-20z m2415 -21 c0 -6 -4 -7 -10 -4 -5 3 -10 11 -10 16 0 6 5 7 10 4 6 -3 10
-11 10 -16z m-2216 -20 c10 -52 8 -69 -9 -63 -8 4 -15 14 -15 25 0 10 -7 22
-17 27 -21 12 -10 42 15 42 14 0 21 -9 26 -31z m1396 1 c-6 -11 -13 -20 -16
-20 -2 0 0 9 6 20 6 11 13 20 16 20 2 0 0 -9 -6 -20z m-2359 -21 c-5 -13 -10
-19 -10 -12 -1 15 10 45 15 40 3 -2 0 -15 -5 -28z m2199 1 c0 -25 -25 -36 -45
-20 -20 16 -19 28 3 33 34 9 42 7 42 -13z m2238 -147 c-2 -170 -6 -150 -10 55
-2 61 0 112 5 112 4 0 6 -75 5 -167z m-3533 123 c11 -8 15 -16 8 -16 -7 0 -25
12 -40 26 -29 26 -6 20 32 -10z m1185 19 c7 -9 11 -17 8 -20 -8 -8 -78 7 -78
17 0 5 -10 6 -21 3 -15 -5 -19 -4 -15 4 11 17 91 14 106 -4z m-1210 -48 c0 -5
-13 1 -30 13 -16 12 -30 24 -30 26 0 3 14 -3 30 -13 17 -9 30 -21 30 -26z
m1051 10 c-9 -9 -14 -8 -21 3 -16 24 -11 31 11 19 16 -8 18 -14 10 -22z m362
16 c-7 -3 -13 -9 -13 -14 0 -9 -9 -22 -39 -55 -7 -8 -11 -18 -8 -21 4 -3 18 9
33 26 36 44 43 31 8 -16 -16 -21 -30 -40 -31 -42 -3 -5 -32 30 -33 40 0 11 83
99 89 93 3 -4 0 -9 -6 -11z m30 -8 c-3 -9 -8 -14 -10 -11 -3 3 -2 9 2 15 9 16
15 13 8 -4z m-1369 -37 c-2 -4 6 -9 18 -11 22 -4 22 -4 -2 -5 -14 -1 -38 5
-55 12 l-30 14 36 -2 c21 0 35 -4 33 -8z m1481 -8 c-3 -5 -11 -10 -16 -10 -6
0 -7 5 -4 10 3 6 11 10 16 10 6 0 7 -4 4 -10z m745 0 c0 -5 -4 -10 -10 -10 -5
0 -10 5 -10 10 0 6 5 10 10 10 6 0 10 -4 10 -10z m-1390 -39 c0 -11 -4 -23
-10 -26 -6 -4 -10 5 -10 19 0 14 5 26 10 26 6 0 10 -9 10 -19z m310 -1 c0 -18
-7 -20 -63 -20 -35 0 -67 3 -70 7 -14 14 31 32 81 33 45 0 52 -2 52 -20z m100
0 c0 -5 -9 -10 -20 -10 -11 0 -20 5 -20 10 0 6 9 10 20 10 11 0 20 -4 20 -10z
m-778 -27 c22 -20 23 -36 3 -53 -12 -10 -16 -8 -25 15 -20 52 -11 68 22 38z
m802 1 c4 -10 -6 -26 -26 -44 -19 -18 -31 -39 -32 -56 -1 -24 -7 -29 -35 -35
-19 -4 -38 -14 -43 -23 -6 -10 -19 -14 -37 -12 -24 3 -31 -2 -45 -30 -11 -25
-12 -34 -3 -34 6 0 -1 -11 -18 -25 -21 -17 -25 -25 -15 -27 8 -1 -41 -5 -110
-8 -69 -3 -147 -2 -175 2 -27 4 -149 11 -270 15 -136 5 -186 9 -132 11 53 2
85 7 82 12 -9 14 19 12 33 -2 7 -7 52 -14 106 -16 87 -4 94 -3 93 14 -1 13 6
20 22 22 13 2 21 0 18 -5 -15 -24 15 -33 128 -39 l120 -6 127 123 c168 165
183 178 175 157 -4 -12 -2 -15 8 -12 8 3 11 12 8 20 -3 8 -1 14 5 14 5 0 13
-7 16 -16z m220 -18 c-3 -7 -28 -28 -57 -47 -28 -18 -60 -42 -70 -52 -17 -17
-20 -17 -37 -2 -10 9 -17 24 -16 33 3 18 25 29 27 13 3 -26 4 -30 13 -38 5 -4
7 4 4 20 -5 23 -1 28 21 32 14 3 46 16 71 30 25 13 46 24 47 24 1 1 0 -5 -3
-13z m-514 -30 c0 -18 -17 -29 -30 -21 -8 5 -7 11 1 21 15 18 29 18 29 0z
m-570 -76 c-1 -10 -9 -6 -25 13 -14 15 -25 36 -25 45 1 13 7 9 25 -13 14 -16
25 -37 25 -45z m711 51 c-19 -35 -101 -32 -101 4 0 6 4 4 9 -4 8 -12 14 -12
43 2 46 23 61 22 49 -2z m-377 -7 c4 -10 2 -13 -6 -8 -8 5 -9 2 -5 -9 3 -10 2
-17 -3 -17 -11 0 -13 11 -4 34 8 20 10 20 18 0z m516 2 c0 -2 -9 -6 -20 -9
-11 -3 -18 -1 -14 4 5 9 34 13 34 5z m274 -21 c-22 -17 -34 -19 -34 -6 0 5 8
12 18 14 32 9 36 7 16 -8z m2050 -21 c24 -9 19 -33 -8 -46 -32 -14 -58 -4 -49
19 11 30 29 38 57 27z m-4101 -29 c-3 -9 -8 -14 -10 -11 -3 3 -2 9 2 15 9 16
15 13 8 -4z m1370 -11 c33 -30 31 -48 -6 -52 -22 -3 -27 1 -28 20 -1 13 -1 26
0 31 0 4 -4 7 -9 7 -6 0 -8 -13 -5 -30 5 -27 3 -30 -20 -30 -20 0 -25 5 -25
24 0 22 32 54 55 55 6 1 23 -11 38 -25z m141 7 c17 -18 16 -19 -15 -26 -19 -4
-41 -12 -51 -18 -9 -6 -21 -8 -25 -3 -4 4 0 12 10 17 9 6 17 16 17 24 0 11 11
18 41 24 3 0 14 -8 23 -18z m-514 0 c0 -12 -20 -25 -27 -18 -7 7 6 27 18 27 5
0 9 -4 9 -9z m240 -21 c7 -14 7 -20 0 -20 -5 0 -10 5 -10 10 0 6 -6 10 -14 10
-8 0 -18 5 -21 10 -3 6 3 10 14 10 11 0 25 -9 31 -20z m-786 -26 c3 -8 2 -12
-4 -9 -6 3 -10 10 -10 16 0 14 7 11 14 -7z m1186 4 c0 -6 -3 -8 -7 -5 -3 4
-15 0 -25 -10 -22 -20 -36 -11 -17 11 16 18 49 21 49 4z m-910 -8 c8 -5 11
-12 7 -16 -4 -4 -15 0 -24 9 -18 18 -8 23 17 7z m1240 -35 c-7 -8 -16 -15 -21
-15 -5 0 -1 8 9 18 20 22 31 19 12 -3z m-262 3 c-2 -6 -10 -14 -16 -16 -7 -2
-10 2 -6 12 7 18 28 22 22 4z m-448 -12 c0 -3 -4 -8 -10 -11 -5 -3 -10 -1 -10
4 0 6 5 11 10 11 6 0 10 -2 10 -4z m30 -86 c0 -5 -2 -10 -4 -10 -3 0 -8 5 -11
10 -3 6 -1 10 4 10 6 0 11 -4 11 -10z m2717 -12 c-3 -8 -6 -5 -6 6 -1 11 2 17
5 13 3 -3 4 -12 1 -19z m-2767 -58 c0 -5 -4 -10 -9 -10 -6 0 -13 5 -16 10 -3
6 1 10 9 10 9 0 16 -4 16 -10z m-25 -30 c3 -5 -1 -10 -9 -10 -9 0 -16 5 -16
10 0 6 4 10 9 10 6 0 13 -4 16 -10z m-25 -41 c0 -5 -4 -9 -10 -9 -5 0 -10 7
-10 16 0 8 5 12 10 9 6 -3 10 -10 10 -16z m-20 -30 c0 -5 -7 -9 -15 -9 -15 0
-20 12 -9 23 8 8 24 -1 24 -14z m-28 -34 c0 -5 -5 -11 -11 -13 -6 -2 -11 4
-11 13 0 9 5 15 11 13 6 -2 11 -8 11 -13z m-3046 -47 c16 -30 17 -31 30 -13 8
10 14 22 14 27 0 4 7 8 15 8 19 0 19 -9 -1 -31 -9 -10 -19 -32 -23 -49 -8 -39
-24 -40 -32 -2 -3 16 -13 40 -22 53 -19 27 -21 39 -7 39 5 0 17 -14 26 -32z
m3024 7 c-7 -8 -16 -15 -21 -15 -5 0 -9 7 -9 15 0 9 9 15 21 15 18 0 19 -2 9
-15z m-24 -26 c3 -6 2 -14 -3 -18 -5 -3 -12 -14 -16 -23 -7 -21 -23 -23 -33
-6 -4 6 0 16 9 23 10 7 17 17 17 24 0 14 17 14 26 0z m30 -36 c-10 -10 -19 5
-10 18 6 11 8 11 12 0 2 -7 1 -15 -2 -18z m-72 -46 c-2 -13 3 -16 17 -12 11 4
19 2 19 -4 0 -6 -8 -11 -17 -11 -14 0 -15 -2 -4 -9 10 -6 10 -10 1 -16 -6 -4
-9 -14 -6 -22 4 -9 -1 -17 -11 -20 -24 -6 -67 -94 -52 -104 8 -4 4 -11 -10
-19 -17 -9 -20 -14 -11 -25 7 -8 7 -15 1 -19 -5 -4 -12 -2 -16 3 -7 12 -35 3
-35 -11 0 -5 -6 -16 -14 -23 -7 -8 -20 -34 -27 -59 -9 -32 -19 -46 -31 -46
-10 0 -18 -7 -18 -16 0 -9 -8 -24 -19 -33 -10 -9 -26 -31 -35 -48 -9 -18 -21
-33 -25 -33 -5 0 -19 -16 -31 -36 -14 -22 -28 -33 -37 -30 -8 3 -11 1 -8 -4 3
-6 -2 -10 -13 -10 -25 0 -34 -11 -21 -26 8 -10 4 -15 -18 -20 -32 -8 -47 -25
-30 -36 6 -4 8 -10 3 -15 -4 -4 -12 0 -17 10 -11 20 -39 23 -39 5 0 -8 -5 -6
-10 4 -6 9 -23 19 -39 23 -34 7 -48 40 -23 54 14 8 14 11 2 26 -13 16 -13 17
6 11 19 -6 21 -3 16 19 -2 15 0 25 7 25 6 0 11 7 11 15 0 8 7 15 16 15 10 0
14 6 10 15 -3 9 0 15 9 15 8 0 15 5 15 11 0 7 12 22 26 35 17 17 23 30 19 44
-5 14 -2 18 8 15 8 -4 18 4 25 20 7 14 19 28 27 31 8 4 15 12 15 18 0 7 11 22
25 34 14 12 25 27 25 33 0 6 9 9 20 6 17 -4 20 -2 15 13 -5 14 -2 17 14 13 14
-3 19 0 18 13 -1 11 7 20 23 25 14 4 18 8 10 8 -12 1 -11 4 3 12 9 6 15 14 12
18 -8 13 67 22 82 9 10 -8 12 -7 7 5 -3 9 -15 18 -27 20 -13 2 -6 5 16 6 24 1
37 6 37 15 0 7 11 25 25 40 14 15 25 32 25 37 0 6 8 9 18 7 9 -2 16 -12 16
-21z m3613 -12 c12 -8 35 -39 51 -68 16 -28 48 -85 71 -126 22 -41 41 -77 41
-81 0 -7 -71 -4 -117 6 -13 2 -33 23 -50 54 -15 28 -31 50 -34 50 -13 0 -31
-60 -27 -85 5 -24 3 -25 -48 -25 -61 0 -89 19 -80 56 9 33 103 184 133 212 29
26 32 27 60 7z m206 -13 c19 -21 127 -210 127 -223 0 -5 -8 -9 -18 -9 -10 0
-22 -3 -25 -6 -11 -12 13 -44 33 -44 11 0 20 -7 20 -15 0 -17 -16 -20 -25 -5
-4 6 -22 9 -41 8 -22 -1 -39 3 -44 12 -15 23 -12 29 15 36 27 7 27 6 20 26 -4
9 -17 13 -40 10 -32 -4 -35 -1 -65 52 -18 31 -42 61 -54 68 -29 15 -29 14 -16
40 34 64 81 86 113 50z m-3543 -232 c0 -5 -2 -10 -4 -10 -3 0 -8 5 -11 10 -3
6 -1 10 4 10 6 0 11 -4 11 -10z m-840 -35 c0 -8 -2 -15 -4 -15 -2 0 -6 7 -10
15 -3 8 -1 15 4 15 6 0 10 -7 10 -15z m-75 -55 c3 -5 1 -10 -4 -10 -6 0 -11 5
-11 10 0 6 2 10 4 10 3 0 8 -4 11 -10z m3985 -32 l30 23 0 -61 c0 -33 -4 -60
-10 -60 -5 0 -10 16 -10 35 0 37 -8 43 -28 23 -9 -9 -15 -9 -24 0 -20 20 -28
14 -28 -23 0 -19 -4 -35 -10 -35 -6 0 -10 27 -10 60 l0 61 30 -23 30 -22 30
22z m160 9 c0 -9 -14 -13 -42 -13 -24 1 -44 -3 -45 -9 -1 -6 13 -9 32 -7 26 2
35 -1 35 -13 0 -11 -10 -15 -35 -15 -24 0 -35 -5 -35 -15 0 -11 12 -15 45 -15
25 0 45 -4 45 -10 0 -5 -22 -10 -50 -10 -52 0 -70 15 -70 60 0 45 18 60 70 60
35 0 50 -4 50 -13z m128 -2 c1 -6 -6 -11 -18 -13 -17 -3 -20 -11 -20 -48 0
-29 -4 -44 -13 -44 -8 0 -11 14 -9 45 4 43 3 45 -22 45 -17 0 -26 5 -26 15 0
13 11 15 53 13 28 -2 53 -8 55 -13z m272 -35 c0 -44 22 -65 52 -49 13 7 18 22
18 49 0 22 5 40 10 40 6 0 10 -20 10 -45 0 -37 -4 -47 -26 -62 -24 -15 -29
-15 -53 -2 -28 16 -49 74 -38 104 11 27 27 6 27 -35z m-197 -15 c30 -62 31
-65 17 -65 -6 0 -18 16 -27 35 -17 35 -33 46 -33 22 0 -18 -27 -53 -34 -46 -7
7 35 109 44 109 3 0 18 -25 33 -55z m57 35 c0 -17 7 -20 40 -20 33 0 40 3 40
20 0 11 5 20 10 20 6 0 10 -27 10 -60 0 -33 -4 -60 -10 -60 -5 0 -10 14 -10
30 0 28 -2 30 -41 30 -37 0 -40 -2 -37 -25 2 -13 -1 -24 -7 -25 -5 0 -11 25
-13 55 -2 34 1 55 8 55 5 0 10 -9 10 -20z m348 -5 c2 -11 8 -30 14 -42 17 -35
-5 -53 -63 -53 l-49 0 0 61 0 60 47 -3 c39 -2 48 -7 51 -23z m-818 -120 c0 -6
-9 -11 -20 -11 -11 0 -20 5 -20 11 0 6 9 11 20 11 11 0 20 -5 20 -11z m30 0
c0 -8 -4 -15 -10 -15 -5 0 -10 7 -10 15 0 8 5 15 10 15 6 0 10 -7 10 -15z m45
-7 c6 -4 2 -8 -7 -8 -10 0 -18 7 -18 17 0 9 3 12 8 7 4 -5 12 -12 17 -16z m64
-7 c-15 -5 -22 6 -14 19 6 9 10 9 16 -1 5 -8 4 -15 -2 -18z m160 0 c-15 -5
-22 6 -14 19 6 9 10 9 16 -1 5 -8 4 -15 -2 -18z m43 14 c0 -5 -5 -11 -11 -13
-6 -2 -11 4 -11 13 0 9 5 15 11 13 6 -2 11 -8 11 -13z m78 -5 c0 -11 -4 -20
-10 -20 -5 0 -10 9 -10 20 0 11 5 20 10 20 6 0 10 -9 10 -20z m40 10 c0 -5 -4
-10 -10 -10 -5 0 -10 5 -10 10 0 6 5 10 10 10 6 0 10 -4 10 -10z m-200 -12 c0
-11 -28 -10 -35 1 -3 6 4 9 15 8 11 -1 20 -5 20 -9z m124 3 c3 -5 -1 -11 -9
-15 -9 -3 -15 0 -15 9 0 16 16 20 24 6z m93 -13 c-3 -8 -6 -5 -6 6 -1 11 2 17
5 13 3 -3 4 -12 1 -19z m51 4 c2 -7 -2 -10 -12 -6 -9 3 -16 11 -16 16 0 13 23
5 28 -10z m28 9 c-4 -5 0 -12 6 -14 8 -3 6 -6 -4 -6 -10 -1 -18 6 -18 14 0 8
5 15 11 15 5 0 8 -4 5 -9z m114 -6 c0 -8 -4 -15 -10 -15 -5 0 -10 7 -10 15 0
8 5 15 10 15 6 0 10 -7 10 -15z m43 -2 c-3 -7 -9 -13 -13 -13 -4 0 -10 6 -13
13 -3 7 3 13 13 13 10 0 16 -6 13 -13z m34 2 c0 -8 -4 -15 -9 -15 -4 0 -8 7
-8 15 0 8 4 15 8 15 5 0 9 -7 9 -15z m51 -3 c2 -7 -6 -12 -17 -12 -21 0 -27
11 -14 24 9 9 26 2 31 -12z m32 9 c0 -6 -4 -13 -10 -16 -5 -3 -10 1 -10 9 0 9
5 16 10 16 6 0 10 -4 10 -9z m-4985 -46 c0 -30 -39 -27 -43 3 -3 20 0 23 20
20 15 -2 23 -10 23 -23z m1655 -65 c19 -27 20 -31 5 -53 -17 -26 -67 -34 -83
-14 -21 27 -24 58 -6 78 25 28 59 24 84 -11z m-2875 -59 c49 -22 99 -77 115
-127 17 -51 8 -159 -18 -210 -27 -54 -77 -102 -132 -128 -63 -29 -188 -29
-245 1 -79 42 -115 102 -115 195 0 82 14 128 53 179 39 51 71 76 123 94 57 20
170 19 219 -4z m404 -86 c29 -52 55 -95 59 -95 5 0 14 34 21 77 18 109 12 103
102 103 73 0 79 -2 79 -20 0 -12 -14 -92 -31 -178 -17 -86 -36 -186 -43 -222
l-13 -65 -71 -3 -71 -3 -52 97 c-29 54 -55 92 -57 85 -3 -8 -12 -50 -21 -95
l-17 -81 -79 2 c-43 2 -80 5 -83 8 -4 4 63 362 85 454 5 19 3 22 -13 17 -11
-3 -41 -2 -69 3 -40 7 -24 9 87 10 l136 1 51 -95z m853 66 c13 -5 27 -28 42
-69 11 -34 26 -61 31 -60 6 1 32 30 58 65 l48 63 79 0 c43 0 82 -4 85 -10 3
-5 -42 -72 -100 -149 -57 -77 -109 -150 -114 -163 -5 -13 -14 -56 -21 -95
l-12 -73 -89 0 c-88 0 -89 0 -84 23 34 152 33 162 -24 319 -28 73 -51 131 -51
128 -1 -3 -7 -29 -13 -59 l-12 -54 -104 -1 c-74 -1 -105 -5 -108 -13 -4 -10
18 -13 87 -13 l92 0 -7 -57 c-11 -87 -6 -83 -111 -83 -73 0 -94 -3 -94 -14 0
-14 78 -26 167 -26 l45 0 -7 -61 c-5 -42 -4 -60 3 -55 6 3 13 2 17 -4 3 -5 29
-10 56 -10 36 0 49 -4 46 -12 -4 -14 -193 -20 -212 -8 -5 4 -77 10 -159 13
-82 4 -150 8 -151 9 -3 2 81 439 90 473 3 12 494 8 527 -4z m531 -1 c8 0 8 -3
-1 -12 -16 -16 -70 -17 -76 -2 -5 13 28 24 52 18 8 -2 19 -4 25 -4z m264 -24
c-4 -10 -19 -16 -41 -16 -39 0 -41 -5 -51 -83 l-7 -57 50 0 c56 0 56 -1 68
103 l7 57 83 0 c45 0 85 -3 87 -8 3 -4 -15 -111 -39 -237 -24 -127 -44 -233
-44 -237 0 -11 -158 -10 -164 1 -4 5 1 41 9 81 8 39 15 76 15 81 0 6 -23 9
-52 7 l-53 -3 -14 -82 -14 -83 -82 0 c-45 0 -84 2 -87 5 -3 3 5 56 17 118 12
61 32 168 45 237 12 69 24 127 27 130 8 8 227 16 237 8 5 -4 6 -14 3 -22z
m569 -66 c63 -297 88 -406 93 -412 3 -4 23 -9 44 -11 21 -2 41 -7 45 -11 3 -4
-77 -6 -180 -4 -110 2 -191 7 -197 13 -7 7 9 11 52 12 l62 1 -3 28 c-2 16 -4
29 -5 30 -1 1 -32 4 -69 7 l-68 6 -20 -39 c-11 -22 -26 -40 -33 -41 -35 -2
-152 3 -156 7 -6 6 23 66 78 159 26 44 79 133 117 198 l69 118 80 -3 80 -3 11
-55z m489 41 c38 -17 95 -72 95 -91 0 -8 -102 -90 -113 -90 -3 0 -17 11 -31
25 -35 35 -80 33 -116 -5 -54 -57 -48 -148 11 -169 35 -12 55 -6 89 25 l26 24
48 -49 c56 -57 56 -75 -2 -114 -117 -82 -292 -45 -352 74 -23 44 -27 155 -8
210 38 112 134 178 258 178 32 0 72 -7 95 -18z m345 -2 c0 -6 -7 -9 -15 -5
-10 4 -17 -3 -20 -22 -4 -15 -10 -45 -15 -66 l-9 -39 67 66 68 67 87 0 c62 0
87 -3 87 -12 0 -7 -45 -58 -100 -113 l-100 -101 65 -119 c35 -66 65 -123 65
-127 0 -5 -40 -8 -88 -8 l-88 0 -38 70 c-43 80 -59 81 -71 7 -12 -80 -8 -77
-96 -77 -43 0 -79 3 -79 8 0 4 18 106 40 227 22 121 40 225 40 232 0 6 -8 9
-18 6 -10 -2 -34 0 -53 5 -26 8 1 10 119 11 105 1 152 -2 152 -10z m629 -15
c2 -2 -2 -33 -9 -69 l-13 -66 -98 3 c-55 2 -99 0 -99 -4 0 -5 0 -11 0 -14 0
-3 37 -7 82 -10 45 -3 83 -6 84 -7 1 -1 -3 -30 -9 -64 l-11 -63 -87 0 c-65 0
-88 -3 -92 -14 -3 -8 -3 -17 0 -20 4 -3 51 -6 106 -6 l100 0 -7 -32 c-4 -18
-9 -50 -13 -71 l-6 -39 -174 4 c-96 1 -179 6 -185 9 -7 4 5 86 32 235 23 126
44 233 47 237 4 7 343 -1 352 -9z m351 -20 c54 -31 80 -77 80 -140 0 -70 -13
-101 -61 -145 l-41 -37 30 -54 30 -53 112 -5 c62 -3 113 -3 115 0 2 3 20 100
39 215 20 116 39 216 41 224 4 10 32 12 133 9 117 -3 131 -5 178 -31 73 -41
99 -89 99 -187 0 -64 -4 -83 -29 -128 -16 -28 -43 -62 -60 -75 -70 -53 -66
-52 -571 -48 -258 2 -471 4 -473 6 -3 2 76 443 84 464 3 11 30 13 132 9 105
-3 134 -7 162 -24z m1389 0 c2 -2 15 -34 28 -71 12 -36 24 -67 26 -69 1 -1 23
28 47 66 l45 69 83 0 c45 1 82 -2 82 -5 0 -4 -45 -71 -100 -150 -92 -130 -102
-149 -111 -206 -17 -117 -10 -108 -94 -108 -40 0 -76 3 -78 8 -3 4 1 44 9 89
l13 83 -53 141 -52 142 -55 0 c-65 -1 -64 25 -3 -241 49 -216 51 -227 28 -218
-9 3 -45 6 -80 6 -60 0 -64 1 -64 23 0 45 -20 58 -85 55 -58 -3 -61 -4 -80
-40 l-20 -38 -84 0 c-74 0 -82 2 -77 17 4 9 58 107 121 217 62 111 117 209
120 218 6 14 23 18 93 20 95 3 335 -3 341 -8z m86 -4 c4 -6 -8 -10 -29 -10
-20 0 -36 5 -36 10 0 6 13 10 29 10 17 0 33 -4 36 -10z m-4815 -350 c0 -5 -4
-10 -10 -10 -5 0 -10 5 -10 10 0 6 5 10 10 10 6 0 10 -4 10 -10z m558 -71 c3
-19 -19 -31 -37 -20 -16 11 -2 43 18 39 9 -2 17 -10 19 -19z m650 -146 c30
-13 85 -18 282 -23 135 -4 246 -8 248 -9 1 0 2 -39 2 -86 l0 -85 -85 0 -85 0
0 -215 0 -215 -110 0 -110 0 0 220 0 220 -85 0 -84 0 -3 63 -3 62 -63 21 -63
21 58 20 c32 11 59 21 61 22 1 0 19 -7 40 -16z m3412 13 c0 -3 -4 -8 -10 -11
-5 -3 -10 -1 -10 4 0 6 5 11 10 11 6 0 10 -2 10 -4z m-2382 -69 c67 -35 128
-96 154 -155 30 -67 31 -190 2 -253 -31 -67 -87 -124 -152 -156 -55 -26 -64
-28 -212 -28 -85 -1 -182 2 -215 5 -52 6 -56 7 -32 14 15 5 52 6 82 4 30 -3
55 -2 55 1 0 4 -16 15 -36 26 -145 78 -190 322 -84 452 75 91 156 124 290 120
80 -3 103 -8 148 -30z m622 4 c114 -35 174 -115 173 -226 -1 -135 -91 -212
-260 -223 l-83 -5 0 -68 0 -69 -110 0 -110 0 -2 297 -3 298 -70 3 c-38 2 -72
6 -75 9 -10 10 505 -5 540 -16z m752 -278 l3 -287 47 3 c26 1 55 -2 65 -8 20
-10 56 39 341 464 l67 100 103 3 c61 2 102 -1 102 -7 0 -5 -12 -11 -27 -13
-23 -3 -54 -44 -215 -285 l-189 -283 -102 0 c-147 0 -418 -12 -412 -18 8 -8
-57 -29 -72 -24 -7 2 -10 8 -7 14 3 5 13 7 21 4 8 -3 11 -1 8 4 -3 5 5 15 19
22 l26 11 0 209 0 208 -50 0 -50 0 0 85 0 85 160 0 160 0 2 -287z m289 263
c99 -68 92 -244 -13 -297 -112 -57 -238 22 -238 150 0 109 58 171 159 171 43
0 65 -6 92 -24z m833 -187 c-3 -5 -10 -7 -15 -3 -5 3 -7 10 -3 15 3 5 10 7 15
3 5 -3 7 -10 3 -15z m-5827 -5 c36 -5 63 -36 63 -72 0 -23 -34 -65 -61 -74
-10 -4 -7 -11 14 -27 54 -44 23 -117 -59 -140 -22 -6 -92 -11 -158 -11 l-118
0 7 28 c4 15 20 86 36 157 17 72 31 135 33 140 3 10 180 10 243 -1z m425 1 c2
-3 3 -18 0 -35 l-4 -30 -88 0 c-71 0 -89 -3 -94 -16 -15 -39 -8 -44 63 -44 39
0 72 -3 74 -8 3 -4 3 -19 0 -35 -5 -27 -6 -27 -83 -27 -72 0 -78 -2 -84 -22
-3 -13 -6 -26 -6 -30 0 -4 39 -9 88 -10 86 -3 87 -3 84 -28 -1 -14 -4 -29 -6
-35 -2 -6 -57 -9 -146 -7 -112 2 -141 6 -137 16 3 8 20 82 39 165 l33 151 131
0 c72 0 133 -2 136 -5z m308 -5 c19 -6 46 -18 59 -29 l24 -18 -36 -27 c-34
-26 -37 -27 -59 -12 -31 22 -90 20 -121 -4 -14 -11 -31 -37 -38 -57 -10 -31
-9 -41 6 -69 24 -46 75 -57 129 -29 28 15 31 15 54 -9 14 -13 21 -29 18 -35
-27 -43 -165 -58 -232 -25 -78 39 -105 125 -64 209 44 92 153 136 260 105z
m393 -14 c18 -7 45 -28 60 -45 23 -28 27 -42 27 -95 0 -54 -4 -69 -31 -105
-37 -52 -96 -81 -164 -81 -74 0 -120 16 -154 56 -27 30 -31 43 -31 90 0 90 49
160 128 184 43 13 130 11 165 -4z m310 -93 c22 -51 42 -93 46 -93 3 1 22 21
41 46 19 25 50 62 67 82 18 21 33 40 33 45 0 4 20 7 45 7 34 0 45 -4 45 -15 0
-13 -33 -188 -55 -292 -4 -18 -11 -21 -47 -18 -24 2 -43 5 -42 6 1 2 4 27 8
54 4 28 10 60 13 73 9 38 -14 24 -63 -38 -61 -77 -82 -79 -112 -10 -12 28 -22
55 -22 60 0 6 -6 10 -14 10 -9 0 -18 -24 -27 -72 l-14 -73 -42 -3 c-34 -3 -43
0 -43 13 0 9 14 81 30 162 17 80 30 147 30 150 0 2 19 3 42 1 l42 -3 39 -92z
m543 81 l81 -7 -6 -31 -7 -31 -84 0 -85 0 -3 -27 -3 -28 65 0 c70 0 80 -6 70
-45 -6 -24 -9 -25 -79 -25 -67 0 -73 -2 -79 -22 -3 -13 -6 -26 -6 -30 0 -5 38
-8 85 -8 89 0 91 -1 79 -47 -6 -22 -10 -23 -141 -23 l-135 0 7 43 c4 23 13 67
20 97 7 30 18 85 25 123 l12 67 52 0 c28 0 87 -3 132 -6z m3424 -47 c56 -30
83 -80 83 -156 0 -106 -53 -161 -154 -161 -94 0 -156 56 -166 151 -14 142 114
231 237 166z m-566 -188 c-12 -20 -108 -59 -115 -47 -12 19 0 35 34 46 45 14
90 15 81 1z m-14 -159 c0 -5 -4 -10 -10 -10 -5 0 -10 5 -10 10 0 6 5 10 10 10
6 0 10 -4 10 -10z m-790 -30 c0 -5 -4 -10 -10 -10 -5 0 -10 5 -10 10 0 6 5 10
10 10 6 0 10 -4 10 -10z m-1857 -87 c355 -4 560 -10 564 -16 6 -10 -203 -9
-1404 10 l-433 6 0 -187 c0 -140 3 -188 13 -191 10 -3 1819 -24 1824 -21 1 1
-12 33 -28 71 -16 38 -29 84 -29 101 0 18 -6 34 -12 36 -10 4 -8 9 3 21 15 15
17 14 23 -15 3 -17 6 -43 6 -58 0 -16 7 -30 16 -34 11 -4 14 -13 10 -30 -4
-15 0 -28 9 -36 13 -11 14 -3 8 64 -4 52 -2 89 7 116 14 43 24 47 53 26 10 -8
27 -12 37 -9 11 3 20 0 20 -6 0 -6 -10 -12 -22 -13 -42 -2 -45 -3 -62 -17 -24
-20 -20 -28 12 -23 21 3 29 0 29 -11 0 -8 -6 -13 -13 -10 -7 2 -17 -5 -24 -16
-9 -17 -8 -21 5 -21 8 0 15 6 16 13 0 6 7 -5 16 -25 8 -21 19 -38 24 -38 6 0
5 -8 -1 -19 -15 -28 -13 -33 10 -21 11 6 20 19 20 28 0 10 5 23 12 30 17 17
-13 16 -31 0 -11 -10 -13 -10 -7 0 4 6 2 12 -4 12 -6 0 -8 5 -5 10 4 6 15 8
25 5 25 -8 39 34 16 50 -8 7 -13 14 -10 17 8 8 44 -3 44 -13 0 -5 5 -9 11 -9
5 0 9 8 8 18 -3 30 1 35 16 22 8 -7 15 -9 15 -6 0 4 5 4 11 1 7 -5 5 -13 -6
-25 -15 -17 -15 -21 -1 -42 8 -12 15 -25 16 -28 7 -48 40 -73 40 -31 0 11 5
23 10 26 15 9 1 27 -17 21 -8 -3 -12 -2 -9 3 3 5 20 11 37 15 25 5 28 8 17 19
-7 7 -22 17 -33 21 -19 7 -19 8 5 21 l25 13 -27 11 c-15 6 -35 8 -43 5 -8 -4
-15 -1 -15 6 0 7 -8 9 -20 5 -26 -8 -26 6 0 28 15 12 19 24 14 42 -5 20 -2 25
19 30 14 4 34 2 45 -4 26 -14 59 -113 68 -204 6 -68 20 -87 16 -22 -2 19 2 35
8 35 5 0 10 -7 10 -15 0 -20 46 -20 54 1 21 55 -8 109 -46 85 -17 -11 -19 -10
-16 6 6 31 52 28 78 -4 38 -49 12 -125 -43 -125 -22 0 -27 -6 -32 -39 -4 -22
-12 -39 -20 -39 -7 0 -15 -7 -19 -15 -5 -13 79 -15 716 -15 l721 0 -7 77 c-3
42 -6 125 -6 185 l0 108 -707 0 c-440 0 -714 4 -723 10 -10 6 239 10 713 10
573 0 729 -3 732 -12 2 -7 5 -100 7 -206 l3 -192 -732 2 -733 3 0 -38 c0 -24
8 -49 20 -64 11 -14 20 -33 20 -42 0 -11 27 -27 88 -51 110 -43 195 -84 209
-102 12 -15 86 -249 104 -328 6 -30 15 -62 20 -71 9 -18 1 -33 -23 -42 -16 -6
-17 -17 -12 -109 6 -99 6 -106 -21 -158 -17 -34 -56 -83 -102 -127 -66 -63
-73 -74 -61 -87 17 -17 31 -125 21 -164 -3 -15 -12 -36 -20 -48 -7 -11 -10
-24 -6 -29 5 -4 2 -5 -4 -1 -7 4 -50 -11 -95 -33 -76 -36 -152 -66 -235 -92
-35 -11 -79 -6 -259 29 -55 11 -111 26 -123 33 -27 17 -36 49 -26 92 13 55 7
140 -14 217 -16 58 -30 83 -60 115 -65 66 -85 123 -83 234 2 82 0 96 -17 112
-16 15 -18 25 -11 56 5 21 14 79 20 128 7 50 21 129 32 177 l19 87 142 71
c107 54 144 78 150 96 10 27 27 23 27 -7 0 -38 48 -116 85 -137 35 -21 35 -21
77 -2 72 32 148 119 148 169 0 23 -1 23 -18 8 -10 -10 -28 -17 -39 -17 -11 0
-36 -6 -54 -14 -21 -9 -53 -12 -84 -9 -98 9 -95 6 -95 72 0 35 -5 63 -12 69
-9 7 -332 13 -953 19 l-940 8 -3 65 c-2 36 -1 130 3 209 l7 144 362 -6 c198
-4 612 -10 919 -14z m3913 -44 c6 -5 9 -21 6 -37 -3 -25 -8 -28 -34 -27 -28 2
-58 26 -58 46 0 4 7 15 16 24 16 15 46 13 70 -6z m-3176 -37 c0 -4 -13 -13
-30 -19 -38 -14 -39 -8 -2 11 32 18 32 18 32 8z m-1270 -60 c0 -26 3 -28 30
-24 44 6 60 -12 60 -69 0 -27 -4 -49 -10 -49 -5 0 -11 8 -11 18 -6 73 -15 88
-48 77 -17 -5 -21 -14 -21 -51 0 -24 -4 -44 -9 -44 -9 0 -20 158 -12 166 12
11 21 1 21 -24z m150 7 c0 -5 -7 -9 -15 -9 -15 0 -20 12 -9 23 8 8 24 -1 24
-14z m-680 -19 c0 -28 2 -30 40 -30 38 0 40 2 40 30 0 20 5 30 15 30 12 0 15
-15 15 -75 0 -60 -3 -75 -15 -75 -10 0 -15 11 -15 35 0 34 -1 35 -40 35 -39 0
-40 -1 -40 -35 0 -24 -5 -35 -15 -35 -12 0 -15 15 -15 75 0 60 3 75 15 75 10
0 15 -10 15 -30z m466 16 c25 -19 12 -31 -16 -16 -28 15 -76 -3 -84 -32 -11
-43 37 -88 73 -68 25 13 41 13 41 0 0 -6 -12 -15 -27 -21 -83 -31 -150 65 -88
126 27 28 71 33 101 11z m536 -1 c0 -5 -5 -11 -11 -13 -6 -2 -11 4 -11 13 0 9
5 15 11 13 6 -2 11 -8 11 -13z m208 -13 c0 -26 3 -28 28 -24 42 6 64 -21 60
-72 -4 -55 -22 -52 -28 4 -4 34 -10 46 -24 48 -24 5 -36 -14 -36 -61 0 -23 -4
-37 -11 -35 -6 2 -10 7 -10 11 1 4 1 41 1 82 0 43 4 75 10 75 6 0 10 -13 10
-28z m-381 -33 l28 -50 32 50 c17 28 35 51 41 51 6 0 10 -31 10 -75 0 -43 -4
-75 -10 -75 -5 0 -10 24 -10 53 -1 56 -5 55 -43 -14 l-18 -33 -30 49 -29 50 0
-52 c0 -29 -4 -53 -10 -53 -6 0 -10 32 -10 75 0 42 4 75 10 75 5 0 23 -23 39
-51z m711 41 c0 -5 -7 -10 -15 -10 -8 0 -15 5 -15 10 0 6 7 10 15 10 8 0 15
-4 15 -10z m720 -70 c0 -60 -3 -71 -21 -81 -16 -8 -28 -8 -45 0 -34 15 -30 29
9 27 l32 -1 0 50 c0 46 -2 50 -24 50 -13 0 -26 6 -28 13 -3 8 8 12 36 12 l41
0 0 -70z m575 58 c34 -15 33 -51 -5 -88 l-29 -29 31 -3 c17 -2 33 -9 36 -15 3
-9 -12 -13 -52 -13 -69 0 -72 12 -15 64 22 21 38 43 36 49 -2 7 -20 11 -41 11
-39 -1 -47 9 -18 25 22 13 26 13 57 -1z m143 -5 c35 -30 33 -105 -2 -128 -69
-46 -132 60 -71 120 29 30 46 31 73 8z m138 -9 c16 -20 7 -47 -22 -75 -32 -30
-30 -36 11 -36 19 0 35 4 35 8 0 4 14 3 31 -3 21 -7 34 -7 41 0 16 16 2 42
-22 42 -24 0 -26 13 -5 30 23 19 18 30 -16 30 -19 0 -29 4 -27 12 4 11 15 12
78 9 24 -1 26 -14 4 -36 -15 -15 -15 -17 5 -31 24 -17 27 -46 7 -67 -16 -16
-216 -23 -216 -8 0 5 18 27 41 50 48 48 47 66 -5 65 -40 -1 -48 12 -13 26 26
10 58 3 73 -16z m-2868 -6 c15 -13 16 -70 0 -86 -17 -17 -74 -15 -92 4 -29 28
-15 83 24 97 18 6 50 -1 68 -15z m432 -49 c0 -44 -3 -60 -12 -57 -13 5 -23 80
-14 104 13 34 26 10 26 -47z m1117 39 c-3 -8 -6 -5 -6 6 -1 11 2 17 5 13 3 -3
4 -12 1 -19z m2385 7 c0 -5 -5 -11 -11 -13 -6 -2 -11 4 -11 13 0 9 5 15 11 13
6 -2 11 -8 11 -13z m-3179 -38 c-2 -63 -3 -67 -13 -67 -5 0 -10 25 -10 56 0
38 4 54 12 52 6 -2 11 -21 11 -41z m134 31 c15 -12 18 -108 3 -108 -5 0 -10
15 -10 34 0 47 -9 66 -30 66 -24 0 -30 -11 -34 -57 -5 -55 -21 -42 -24 20 l-3
53 43 1 c23 1 48 -3 55 -9z m327 6 c9 -3 16 -13 16 -20 0 -11 -4 -12 -19 -4
-25 13 -27 13 -45 -6 -20 -19 -20 -29 0 -48 10 -10 24 -14 40 -10 14 4 24 2
24 -5 0 -20 -49 -24 -75 -7 -59 39 -7 125 59 100z m66 -54 c0 -33 -4 -60 -10
-60 -6 0 -10 27 -10 60 0 33 4 60 10 60 6 0 10 -27 10 -60z m790 5 c0 -43 1
-45 30 -45 29 0 30 2 30 45 0 29 4 45 13 45 8 0 12 -18 12 -57 -1 -55 -1 -56
-30 -58 -58 -3 -73 9 -76 64 -3 36 0 51 9 51 8 0 12 -16 12 -45z m220 25 c15
-23 13 -103 -2 -97 -7 2 -12 14 -10 27 6 38 -7 70 -28 70 -24 0 -42 -32 -38
-67 2 -15 -3 -28 -9 -30 -10 -4 -13 12 -13 55 l0 60 45 -2 c28 -1 50 -7 55
-16z m134 -2 c27 -38 20 -48 -31 -48 -44 -1 -46 -2 -29 -15 11 -8 29 -12 43
-9 13 4 23 2 23 -5 0 -22 -51 -24 -78 -4 -33 25 -38 47 -18 78 21 33 69 34 90
3z m-734 -34 c0 -2 -9 -4 -21 -4 -11 0 -18 4 -14 10 5 8 35 3 35 -6z m2065
-84 c23 -26 16 -51 -22 -73 -31 -18 -32 -18 -52 2 -27 27 -27 65 1 83 26 17
50 13 73 -12z m-5398 -1132 c-2 -13 -4 -3 -4 22 0 25 2 35 4 23 2 -13 2 -33 0
-45z m30 -65 c-2 -21 -4 -6 -4 32 0 39 2 55 4 38 2 -18 2 -50 0 -70z m3601
-429 c0 -18 -3 -22 -9 -13 -11 18 -11 39 0 39 5 0 9 -12 9 -26z m142 6 c24
-24 31 -57 17 -87 -8 -17 -19 -23 -44 -23 -18 0 -33 5 -33 10 0 6 -7 10 -15
10 -8 0 -12 6 -9 14 3 8 1 17 -5 21 -17 10 -13 22 14 50 31 30 49 31 75 5z
m-170 -10 c0 -5 -7 -7 -15 -4 -8 4 -15 8 -15 10 0 2 7 4 15 4 8 0 15 -4 15
-10z m-726 -36 c3 -8 2 -12 -4 -9 -6 3 -10 10 -10 16 0 14 7 11 14 -7z m1836
-60 c0 -8 -4 -12 -10 -9 -5 3 -10 10 -10 16 0 5 5 9 10 9 6 0 10 -7 10 -16z
m-1055 -45 c-8 -12 -35 -12 -35 0 0 11 22 20 33 14 4 -2 5 -9 2 -14z m-15
-105 c0 -8 -5 -12 -10 -9 -6 4 -8 11 -5 16 9 14 15 11 15 -7z m-2160 -34 c0
-11 -7 -23 -16 -27 -20 -8 -36 17 -22 34 16 20 38 15 38 -7z m2180 -54 c0 -3
-4 -8 -10 -11 -5 -3 -10 -1 -10 4 0 6 5 11 10 11 6 0 10 -2 10 -4z m-31 -48
c6 -17 9 -33 7 -35 -5 -6 -23 20 -30 45 -11 35 11 26 23 -10z m50 -85 c-1 -38
1 -81 6 -98 8 -29 8 -29 -10 -12 -20 21 -34 107 -16 107 6 0 11 5 11 11 0 5
-4 7 -10 4 -5 -3 -10 -1 -10 4 0 6 5 11 10 11 6 0 10 9 10 20 0 11 3 20 6 20
3 0 4 -30 3 -67z m-1991 -149 c4 -27 -23 -38 -43 -18 -12 13 -13 19 -4 30 17
20 43 13 47 -12z m1933 -47 c-7 -19 -30 -49 -52 -67 -32 -25 -39 -28 -30 -12
6 12 20 26 30 32 10 5 27 30 37 55 21 50 32 44 15 -8z m369 3 c0 -5 -4 -10
-10 -10 -5 0 -10 5 -10 10 0 6 5 10 10 10 6 0 10 -4 10 -10z m-322 -116 c-7
-27 -17 -52 -23 -56 -14 -11 9 -44 28 -40 23 4 28 -13 11 -34 -14 -18 -15 -18
-8 6 5 20 4 23 -7 13 -7 -7 -18 -13 -24 -13 -7 0 -12 6 -13 13 -1 6 -4 24 -7
38 -5 17 0 37 14 60 12 19 24 42 27 52 13 37 14 8 2 -39z m-441 -156 c-3 -7
-5 -2 -5 12 0 14 2 19 5 13 2 -7 2 -19 0 -25z m487 -2 c-3 -8 -15 -17 -27 -20
-21 -5 -20 -4 3 14 30 24 31 24 24 6z m-494 -20 c0 -3 -4 -8 -10 -11 -5 -3
-10 -1 -10 4 0 6 5 11 10 11 6 0 10 -2 10 -4z m505 -92 c7 -64 1 -91 -14 -65
-5 7 -6 -10 -3 -38 3 -33 1 -51 -6 -51 -7 0 -11 24 -11 65 1 36 5 65 10 65 12
0 11 67 -1 75 -6 4 -8 11 -4 16 12 20 23 -4 29 -67z m-475 24 c0 -20 -18 -5
-23 19 -5 26 -4 26 9 8 8 -10 14 -22 14 -27z m-10 -37 c0 -11 3 -26 6 -35 3
-9 2 -16 -4 -16 -5 0 -12 16 -14 35 -2 19 0 35 4 35 4 0 8 -9 8 -19z m6 -116
c0 -30 -4 -55 -8 -55 -4 0 -8 25 -8 55 0 30 4 55 9 55 4 0 8 -25 7 -55z m503
-97 c1 -28 -3 -38 -14 -38 -8 0 -15 -6 -15 -12 -1 -28 -18 19 -24 65 -3 31 -2
46 4 42 6 -3 10 -19 10 -35 0 -16 4 -31 9 -34 5 -3 9 13 9 37 0 23 1 60 2 82
3 38 3 38 10 -15 5 -30 8 -72 9 -92z m991 113 c0 -11 -6 -26 -13 -33 -8 -7
-16 -18 -18 -24 -3 -8 -11 -9 -29 -1 l-25 10 30 6 c21 4 30 12 31 26 2 31 3
35 14 35 6 0 10 -9 10 -19z m-47 -85 c18 -14 17 -15 -3 -21 -24 -8 -46 7 -36
24 9 14 17 13 39 -3z m-1443 -26 c0 -5 -4 -10 -10 -10 -5 0 -10 5 -10 10 0 6
5 10 10 10 6 0 10 -4 10 -10z m1407 -36 c-9 -9 -28 6 -21 18 4 6 10 6 17 -1 6
-6 8 -13 4 -17z m44 -32 c-6 -27 -6 -27 -9 6 -2 18 -8 30 -13 27 -5 -4 -9 2
-9 11 0 16 1 16 19 0 13 -12 16 -24 12 -44z m-2197 21 c7 -17 -16 -43 -36 -43
-12 0 -21 28 -14 45 7 20 42 19 50 -2z m2126 -24 c0 -5 -7 -9 -15 -9 -15 0
-20 12 -9 23 8 8 24 -1 24 -14z m50 1 c0 -11 -4 -20 -9 -20 -7 0 -8 17 -2 38
4 10 11 -2 11 -18z m-905 0 c3 -5 1 -10 -4 -10 -6 0 -11 5 -11 10 0 6 2 10 4
10 3 0 8 -4 11 -10z m-565 -22 c0 -19 -2 -20 -10 -8 -13 19 -13 30 0 30 6 0
10 -10 10 -22z m576 -73 c-5 -23 -13 -35 -29 -38 -19 -5 -20 -4 -6 6 9 7 20
35 24 62 6 34 10 43 13 26 2 -13 1 -38 -2 -56z m814 49 c0 -14 -12 -19 -23 -8
-9 9 4 35 14 28 5 -3 9 -12 9 -20z m-50 -14 c0 -5 -9 -10 -20 -10 -11 0 -20 5
-20 10 0 6 9 10 20 10 11 0 20 -4 20 -10z m39 -16 c6 4 11 0 11 -8 0 -9 -4
-15 -9 -13 -5 1 -17 -7 -25 -18 -15 -19 -15 -19 -16 11 0 34 10 50 21 33 4 -6
12 -8 18 -5z m-79 -28 c0 -3 -4 -8 -10 -11 -5 -3 -10 -1 -10 4 0 6 5 11 10 11
6 0 10 -2 10 -4z m30 -21 c0 -14 -4 -25 -10 -25 -5 0 -9 11 -8 25 1 14 6 25
10 25 4 0 8 -11 8 -25z m90 9 c0 -8 -4 -12 -10 -9 -5 3 -10 10 -10 16 0 5 5 9
10 9 6 0 10 -7 10 -16z m-885 -143 c-6 -21 -25 -29 -25 -11 0 6 5 10 10 10 6
0 10 8 10 17 0 9 3 14 6 10 3 -3 3 -15 -1 -26z m-608 13 c-3 -3 -12 -4 -19 -1
-8 3 -5 6 6 6 11 1 17 -2 13 -5z m3 -33 c0 -5 -9 -11 -20 -14 -20 -5 -26 3
-13 16 9 10 33 8 33 -2z m580 -116 c0 -8 -9 -15 -20 -15 -22 0 -27 15 -7 23
21 9 27 7 27 -8z m-120 -15 c0 -5 -4 -10 -10 -10 -5 0 -10 5 -10 10 0 6 5 10
10 10 6 0 10 -4 10 -10z"/>
<path d="M2678 8873 c12 -2 30 -2 40 0 9 3 -1 5 -23 4 -22 0 -30 -2 -17 -4z"/>
<path d="M2653 8853 c9 -2 23 -2 30 0 6 3 -1 5 -18 5 -16 0 -22 -2 -12 -5z"/>
<path d="M2947 8734 c-8 -8 1 -24 14 -24 5 0 9 7 9 15 0 15 -12 20 -23 9z"/>
<path d="M2673 8513 c-13 -8 -23 -19 -23 -24 0 -16 15 -9 33 16 21 29 20 29
-10 8z"/>
<path d="M3153 8403 c11 -44 25 -58 22 -24 -1 10 -8 29 -17 42 -15 23 -16 22
-5 -18z"/>
<path d="M820 8555 c0 -8 5 -15 10 -15 6 0 10 7 10 15 0 8 -4 15 -10 15 -5 0
-10 -7 -10 -15z"/>
<path d="M1080 8300 c0 -5 5 -10 10 -10 6 0 10 5 10 10 0 6 -4 10 -10 10 -5 0
-10 -4 -10 -10z"/>
<path d="M2615 8720 c3 -6 -4 -10 -17 -10 -22 -1 -22 -1 -4 -15 11 -8 14 -15
8 -15 -7 0 -12 -5 -12 -11 0 -6 9 -8 23 -3 31 9 34 14 17 24 -14 9 -7 14 13
11 14 -2 7 17 -9 23 -22 8 -26 8 -19 -4z"/>
<path d="M4858 8633 c7 -3 16 -2 19 1 4 3 -2 6 -13 5 -11 0 -14 -3 -6 -6z"/>
<path d="M5896 8175 c-3 -8 -1 -15 4 -15 6 0 10 7 10 15 0 8 -2 15 -4 15 -2 0
-6 -7 -10 -15z"/>
<path d="M5031 8094 c0 -11 3 -14 6 -6 3 7 2 16 -1 19 -3 4 -6 -2 -5 -13z"/>
<path d="M3640 8320 c0 -5 5 -10 11 -10 5 0 7 5 4 10 -3 6 -8 10 -11 10 -2 0
-4 -4 -4 -10z"/>
<path d="M3620 8291 c0 -5 -8 -12 -17 -14 -15 -4 -15 -5 -2 -6 9 0 22 6 29 14
9 10 9 15 1 15 -6 0 -11 -4 -11 -9z"/>
<path d="M3578 8253 c7 -3 16 -2 19 1 4 3 -2 6 -13 5 -11 0 -14 -3 -6 -6z"/>
<path d="M3850 8330 c-8 -5 -12 -11 -9 -14 2 -3 11 -1 19 4 8 5 12 11 9 14 -2
3 -11 1 -19 -4z"/>
<path d="M2491 7054 c0 -11 3 -14 6 -6 3 7 2 16 -1 19 -3 4 -6 -2 -5 -13z"/>
<path d="M6862 7518 c6 -16 36 -34 44 -26 3 4 4 14 1 23 -7 17 -51 21 -45 3z"/>
<path d="M7040 7320 c0 -5 14 -10 31 -10 17 0 28 4 24 10 -3 6 -17 10 -31 10
-13 0 -24 -4 -24 -10z"/>
<path d="M7040 7265 c0 -10 11 -15 35 -15 24 0 35 5 35 15 0 10 -11 15 -35 15
-24 0 -35 -5 -35 -15z"/>
<path d="M740 7021 c-109 -33 -174 -117 -186 -239 -5 -50 -2 -64 23 -111 42
-81 90 -104 204 -99 79 4 90 7 135 39 85 60 134 196 103 285 -36 101 -166 159
-279 125z m103 -102 c39 -20 57 -51 57 -102 0 -109 -85 -176 -173 -136 -37 17
-50 50 -45 111 5 61 28 100 73 122 36 19 59 20 88 5z"/>
<path d="M746 6878 c-36 -32 -54 -105 -35 -143 31 -64 123 -49 153 26 21 53
20 81 -5 113 -27 34 -77 35 -113 4z"/>
<path d="M1121 6803 c-22 -115 -41 -214 -41 -220 0 -9 18 -13 58 -13 l57 0 20
105 c12 65 24 105 31 105 7 0 38 -47 69 -104 l57 -104 50 -6 c28 -4 52 -5 55
-3 5 6 83 396 83 418 0 12 -13 18 -52 22 -28 4 -53 5 -55 3 -2 -1 -13 -51 -25
-109 -11 -59 -24 -107 -28 -107 -11 0 -23 18 -70 105 -66 122 -59 115 -116
115 l-51 0 -42 -207z"/>
<path d="M1676 6988 c-6 -19 -84 -423 -82 -425 1 -1 76 -3 166 -4 l165 -2 11
44 11 44 -104 3 c-112 3 -119 6 -105 57 l9 30 89 0 89 0 9 37 c5 21 8 40 5 42
-2 2 -42 6 -88 10 -46 3 -85 7 -86 8 -2 2 0 18 2 36 l5 32 108 0 107 0 7 41
c4 22 4 44 1 50 -10 15 -315 12 -319 -3z"/>
<path d="M2097 6893 c70 -193 68 -182 51 -267 l-15 -76 62 0 63 0 12 78 c12
77 13 80 112 211 55 73 98 134 96 136 -8 6 -97 12 -105 6 -5 -3 -33 -37 -62
-76 -29 -38 -58 -70 -64 -70 -7 0 -24 34 -38 75 l-26 75 -61 3 -61 3 36 -98z"/>
<path d="M2731 6843 c-12 -71 -29 -165 -38 -211 -9 -45 -13 -86 -9 -89 4 -4
30 -7 59 -8 l51 0 15 83 14 82 78 0 c89 0 85 6 64 -90 -8 -36 -14 -68 -15 -72
0 -7 120 -12 120 -5 0 1 18 98 38 215 l38 212 -43 2 c-24 0 -48 1 -55 2 -13 1
-22 -23 -38 -106 l-11 -57 -86 2 c-65 0 -86 4 -91 15 -3 8 2 20 11 27 14 10
36 77 37 113 0 8 -18 12 -58 12 l-59 0 -22 -127z"/>
<path d="M3331 6853 c-35 -59 -93 -156 -128 -215 -34 -59 -63 -110 -63 -113 0
-3 27 -5 60 -5 59 0 60 0 80 40 l20 40 89 0 89 0 7 -40 c6 -37 9 -39 51 -46
45 -6 79 0 71 13 -2 5 -24 100 -47 213 -24 113 -45 207 -46 209 -2 2 -29 5
-61 8 l-59 5 -63 -109z m113 -50 c3 -16 8 -47 11 -70 l7 -43 -51 0 c-28 0 -51
5 -51 10 0 18 60 130 69 130 5 0 12 -12 15 -27z"/>
<path d="M3406 6752 c-3 -9 -9 -23 -12 -29 -4 -8 2 -13 15 -13 16 0 21 6 21
24 0 30 -15 42 -24 18z"/>
<path d="M3881 6949 c-109 -21 -178 -104 -188 -229 -7 -84 17 -144 76 -184 66
-46 199 -48 255 -3 27 22 28 23 13 59 -20 48 -30 52 -69 28 -77 -47 -158 -4
-158 84 0 87 50 146 123 146 20 0 46 -9 61 -21 l26 -20 28 20 c50 35 57 49 37
71 -35 39 -133 62 -204 49z"/>
<path d="M4205 6928 c-9 -27 -69 -364 -69 -393 -1 -29 1 -30 50 -33 47 -3 52
-1 58 20 3 13 6 33 6 45 0 21 44 83 60 83 4 0 27 -34 49 -75 l42 -75 63 0 64
0 -65 121 -65 121 95 94 c53 52 95 94 94 95 -1 0 -27 3 -57 5 l-55 5 -80 -81
c-78 -78 -112 -99 -101 -62 2 9 7 37 11 62 4 25 9 53 11 63 5 15 -2 17 -51 17
-35 0 -57 -4 -60 -12z"/>
<path d="M4637 6728 c-21 -112 -37 -209 -37 -215 0 -10 39 -13 160 -13 159 0
160 0 160 23 0 12 3 32 6 45 6 22 5 22 -95 22 -100 0 -101 0 -101 24 0 52 6
56 95 56 46 0 86 3 89 8 2 4 7 24 11 45 l7 37 -86 0 c-93 0 -95 1 -80 58 6 21
11 22 104 22 l98 0 6 31 c12 62 19 59 -147 59 l-153 0 -37 -202z"/>
<path d="M5085 6919 c-2 -3 -9 -34 -14 -70 -6 -35 -22 -127 -36 -203 -13 -76
-22 -143 -19 -147 3 -5 28 -8 55 -7 44 2 50 5 55 28 19 83 20 85 45 87 20 2
28 -6 54 -57 l29 -60 58 0 58 0 -30 60 c-16 33 -30 61 -30 64 0 2 15 14 34 26
60 37 91 129 66 196 -8 21 -14 24 -22 16 -16 -16 -28 -15 -28 3 0 8 5 15 10
15 21 0 9 18 -22 33 -33 15 -256 29 -263 16z m197 -106 c24 -21 23 -68 -2 -93
-15 -15 -33 -20 -71 -20 -50 0 -51 0 -45 28 3 15 8 44 12 65 6 36 8 37 47 37
24 0 48 -7 59 -17z"/>
<path d="M5196 6769 c-4 -23 -4 -44 -2 -47 3 -2 21 -1 40 2 65 12 57 86 -10
86 -17 0 -23 -8 -28 -41z"/>
<path d="M5725 6908 c-2 -7 -18 -96 -35 -198 -17 -102 -33 -193 -36 -202 -5
-17 6 -18 131 -18 148 0 187 9 238 58 48 45 70 99 70 172 1 118 -53 177 -175
191 -110 12 -188 11 -193 -3z m208 -99 c72 -33 57 -176 -23 -216 -28 -14 -116
-18 -124 -5 -3 4 -1 26 4 48 4 21 13 72 20 112 l12 72 43 0 c24 0 55 -5 68
-11z"/>
<path d="M5831 6729 c-6 -41 -14 -84 -18 -96 -5 -21 -2 -23 37 -23 52 0 76 12
95 50 35 67 9 125 -61 136 l-41 6 -12 -73z"/>
<path d="M5156 6549 c-10 -52 -8 -57 29 -61 19 -2 35 -2 35 1 0 3 -7 25 -16
48 -20 51 -39 55 -48 12z"/>
<path d="M6279 6798 c-34 -62 -86 -155 -116 -206 -29 -51 -53 -97 -53 -101 0
-5 25 -9 55 -10 54 0 55 0 75 39 l20 40 85 0 85 0 6 -40 7 -40 53 0 c37 0 54
4 54 13 0 22 -88 398 -94 404 -3 4 -30 8 -60 10 l-54 4 -63 -113z m116 -55 c4
-21 11 -51 16 -67 13 -43 11 -49 -13 -42 -13 4 -35 8 -50 9 -15 1 -29 5 -33 9
-8 8 52 128 65 128 5 0 12 -17 15 -37z"/>
<path d="M6352 6695 c-10 -22 -9 -25 8 -25 15 0 20 7 20 25 0 14 -4 25 -8 25
-5 0 -14 -11 -20 -25z"/>
<path d="M6630 6892 c0 -5 21 -64 46 -133 47 -127 51 -163 28 -256 -6 -22 -4
-23 49 -23 l55 0 11 50 c6 28 11 60 11 70 0 18 97 169 161 251 16 20 29 40 29
43 0 3 -24 6 -52 6 l-53 0 -53 -76 c-30 -41 -59 -73 -64 -72 -6 2 -22 36 -36
76 l-26 72 -53 0 c-29 0 -53 -4 -53 -8z"/>
<path d="M3710 6296 c0 -2 7 -9 15 -16 12 -10 15 -10 15 4 0 9 -7 16 -15 16
-8 0 -15 -2 -15 -4z"/>
<path d="M3726 6235 c4 -8 8 -15 10 -15 2 0 4 7 4 15 0 8 -4 15 -10 15 -5 0
-7 -7 -4 -15z"/>
<path d="M3720 6200 c0 -6 -31 -10 -72 -10 -91 0 -85 -6 15 -13 71 -5 77 -4
77 14 0 10 -4 19 -10 19 -5 0 -10 -4 -10 -10z"/>
<path d="M3550 5777 c0 -9 -7 -17 -16 -17 -8 0 -13 -4 -10 -9 11 -17 41 -5 38
15 -5 25 -12 32 -12 11z"/>
<path d="M4240 6271 c0 -5 13 -14 30 -21 64 -27 130 -143 130 -231 0 -45 -31
-135 -60 -175 -36 -49 -143 -102 -192 -95 -9 1 -19 -3 -23 -9 -10 -15 47 -12
102 6 190 65 249 312 111 464 -26 29 -98 73 -98 61z"/>
<path d="M4040 6183 c-16 -7 -32 -19 -60 -47 -19 -18 -47 -122 -37 -133 3 -3
9 12 13 33 16 89 63 134 139 134 52 0 96 -19 119 -52 9 -12 16 -18 16 -13 -2
50 -128 102 -190 78z"/>
<path d="M4045 6138 c-88 -51 -85 -198 5 -246 54 -28 139 5 160 62 23 66 5
135 -46 175 -30 23 -87 27 -119 9z"/>
<path d="M4012 5874 c10 -10 20 -15 24 -12 3 4 -5 12 -18 18 -22 12 -22 12 -6
-6z"/>
<path d="M3882 5805 c15 -16 30 -26 33 -23 4 3 -9 16 -27 28 l-33 23 27 -28z"/>
<path d="M3955 5756 c17 -9 41 -15 55 -15 23 1 23 2 -5 9 -73 20 -82 21 -50 6z"/>
<path d="M4058 5733 c7 -3 16 -2 19 1 4 3 -2 6 -13 5 -11 0 -14 -3 -6 -6z"/>
<path d="M4510 6279 c0 -5 5 -7 10 -4 6 3 10 8 10 11 0 2 -4 4 -10 4 -5 0 -10
-5 -10 -11z"/>
<path d="M4738 6283 c12 -2 32 -2 45 0 12 2 2 4 -23 4 -25 0 -35 -2 -22 -4z"/>
<path d="M4815 6280 c3 -5 19 -10 34 -10 33 0 112 -50 136 -86 22 -34 30 -122
16 -167 -7 -20 -28 -47 -49 -63 -20 -16 -39 -32 -40 -36 -2 -5 -7 -6 -12 -3
-4 3 -27 -2 -51 -11 -24 -8 -70 -14 -102 -13 -48 2 -61 -1 -78 -19 -11 -12
-16 -22 -12 -22 4 0 6 -23 4 -51 l-3 -51 -67 4 -66 4 -6 84 -5 85 -2 -96 -2
-97 85 -1 85 -1 0 69 c0 80 0 81 118 81 141 0 232 76 232 193 0 118 -58 181
-193 212 -19 4 -26 2 -22 -5z"/>
<path d="M4729 6183 c-55 -4 -57 -5 -62 -36 -10 -56 -2 -138 14 -148 8 -5 39
-8 69 -7 l55 1 -60 6 -60 6 0 75 0 75 61 3 c50 2 65 -1 88 -19 23 -18 27 -28
24 -58 -3 -20 -8 -45 -13 -56 l-8 -20 16 20 c9 11 17 39 17 61 0 36 -5 47 -35
73 -20 17 -39 30 -43 29 -4 -1 -32 -3 -63 -5z"/>
<path d="M4710 6080 l0 -61 48 6 c47 5 82 31 82 61 0 29 -39 54 -85 54 l-45 0
0 -60z"/>
<path d="M4512 6105 c0 -16 2 -22 5 -12 2 9 2 23 0 30 -3 6 -5 -1 -5 -18z"/>
<path d="M4965 5989 c-4 -6 -5 -12 -2 -15 2 -3 7 2 10 11 7 17 1 20 -8 4z"/>
<path d="M5339 6288 c0 -1 -2 -31 -3 -65 l-2 -63 48 0 c32 0 48 -4 48 -12 1
-7 2 -49 4 -93 2 -44 4 -136 5 -204 l1 -123 43 7 c23 3 61 6 85 6 l43 0 -3
254 c-2 139 -6 257 -10 261 -4 4 -13 2 -20 -3 -7 -5 -24 -7 -38 -3 l-25 6 25
7 c13 3 22 8 20 10 -6 6 -220 20 -221 15z m106 -28 c-38 -4 -60 -7 -48 -8 12
-1 45 -7 73 -13 44 -9 50 -14 51 -37 l1 -27 7 25 c6 20 9 13 15 -35 5 -35 11
-53 15 -43 3 10 6 -50 6 -132 1 -83 -3 -150 -7 -150 -5 0 -4 -8 1 -18 16 -30
2 -62 -25 -62 -13 0 -24 6 -24 13 0 8 -3 9 -8 1 -9 -14 -42 -14 -43 0 0 6 0
95 1 199 1 127 -2 187 -9 187 -6 0 -11 7 -11 15 0 14 -15 20 -65 27 -14 2 -21
12 -23 36 l-3 32 83 -2 83 -2 -70 -6z"/>
<path d="M5425 6231 c-3 -5 -1 -12 5 -16 5 -3 10 1 10 9 0 18 -6 21 -15 7z"/>
<path d="M5500 6122 c0 -23 -4 -42 -10 -42 -6 0 -10 -33 -10 -80 0 -44 4 -80
8 -80 9 0 25 230 17 239 -3 2 -5 -14 -5 -37z"/>
<path d="M5525 6005 c-4 -42 -5 -79 -2 -81 2 -3 8 29 12 71 4 42 5 79 2 81 -2
3 -8 -29 -12 -71z"/>
<path d="M5990 6013 c-96 -145 -176 -269 -178 -274 -2 -5 20 -9 50 -9 l53 0
175 261 c96 143 179 267 183 275 7 11 -3 14 -50 13 l-58 -1 -175 -265z m-79
-166 c-10 -9 -11 -8 -5 6 3 10 9 15 12 12 3 -3 0 -11 -7 -18z"/>
<path d="M5749 6267 c-70 -47 -78 -170 -15 -233 60 -60 168 -53 213 15 27 40
31 113 9 166 -30 72 -137 99 -207 52z m120 -73 c25 -56 3 -134 -38 -134 -25 0
-41 21 -48 64 -13 84 54 139 86 70z"/>
<path d="M5814 6186 c-3 -7 -4 -33 -2 -57 4 -52 28 -60 41 -14 14 49 -22 115
-39 71z"/>
<path d="M766 6018 c-11 -44 -8 -48 42 -48 50 0 72 12 72 41 0 21 -20 29 -70
29 -31 0 -39 -4 -44 -22z"/>
<path d="M735 5880 c-4 -17 -5 -33 -3 -36 3 -2 28 -5 56 -6 38 -2 57 2 69 15
30 29 6 51 -60 55 -55 3 -55 3 -62 -28z"/>
<path d="M1923 6005 c-52 -22 -81 -106 -50 -146 56 -73 167 -22 167 75 0 66
-53 98 -117 71z"/>
<path d="M6191 6003 c-54 -28 -74 -63 -75 -131 -1 -40 5 -67 17 -86 56 -85
197 -88 243 -4 8 13 13 51 14 86 0 59 -2 65 -37 102 -47 50 -107 62 -162 33z
m91 -70 c12 -11 18 -30 18 -60 0 -57 -14 -83 -45 -83 -31 0 -45 26 -45 84 0
66 34 94 72 59z"/>
<path d="M6236 5914 c-15 -39 -3 -104 19 -104 25 0 34 64 15 101 -13 23 -26
24 -34 3z"/>
<path d="M3806 5211 c-15 -27 -14 -29 7 -36 21 -7 21 -8 -5 -12 -16 -2 -28
-10 -28 -16 0 -15 88 -21 104 -8 6 5 22 11 36 14 23 4 22 4 -5 6 -45 2 -63 17
-32 25 20 5 25 11 22 27 -6 30 -12 34 -30 19 -12 -10 -19 -10 -27 -2 -18 18
-26 15 -42 -17z"/>
<path d="M3840 5075 c15 -19 21 -19 46 0 18 13 16 14 -20 15 -33 0 -37 -2 -26
-15z"/>
<path d="M3697 4877 c-18 -13 -20 -56 -5 -97 4 -8 14 -46 23 -85 15 -65 44
-147 101 -290 13 -33 24 -71 24 -85 0 -53 17 -52 22 2 3 29 14 73 26 97 12 25
22 56 22 69 0 23 82 278 101 313 6 12 -1 25 -24 47 -36 35 -47 39 -47 18 0
-15 -49 -36 -82 -36 -11 0 -16 -5 -13 -10 4 -6 15 -8 26 -5 17 6 16 2 -6 -21
-34 -37 -32 -54 3 -21 34 33 46 34 36 5 -6 -20 -5 -21 10 -9 9 7 16 10 16 6 0
-4 6 -2 14 4 8 7 16 8 19 4 7 -11 -34 -149 -72 -246 -17 -43 -31 -84 -31 -92
0 -7 -5 -17 -10 -20 -10 -6 -60 93 -60 119 0 8 -3 16 -8 18 -9 4 -50 175 -56
231 -2 20 1 37 5 37 13 0 11 24 -4 43 -10 15 -15 16 -30 4z"/>
<path d="M3786 4795 c7 -17 20 -20 28 -6 3 5 -1 12 -10 15 -22 9 -24 8 -18 -9z"/>
<path d="M3740 4792 c0 -12 19 -26 26 -19 2 2 -2 10 -11 17 -9 8 -15 8 -15 2z"/>
<path d="M3819 4633 c0 -10 -2 -37 -4 -60 -2 -24 1 -43 6 -43 8 0 10 7 13 50
1 8 5 21 9 28 10 15 2 42 -13 42 -5 0 -10 -8 -11 -17z"/>
<path d="M4204 4562 c-10 -17 -10 -90 0 -192 3 -30 1 -68 -4 -85 -5 -16 -12
-61 -14 -100 -2 -38 -11 -87 -19 -107 -20 -47 -4 -50 23 -5 10 17 24 37 29 44
6 7 11 21 11 31 0 15 5 18 25 14 15 -2 25 0 25 7 0 6 -5 11 -11 11 -8 0 -8 5
1 15 7 8 21 15 31 15 11 0 19 5 19 12 0 6 2 9 5 7 7 -7 -18 -69 -27 -69 -4 0
-8 -9 -8 -20 0 -18 2 -19 20 -8 11 7 18 18 16 24 -2 6 5 16 16 23 11 7 17 19
14 26 -3 8 -1 17 4 20 6 4 10 20 10 36 0 24 -6 32 -29 40 -22 8 -28 15 -24 30
5 16 0 19 -35 19 -37 0 -41 3 -52 35 -12 36 -15 158 -5 175 3 5 2 11 -3 14 -4
2 -13 -3 -18 -12z"/>
<path d="M3531 4464 c0 -11 3 -14 6 -6 3 7 2 16 -1 19 -3 4 -6 -2 -5 -13z"/>
<path d="M3514 4422 c4 -50 -9 -70 -49 -74 -21 -2 -30 -8 -29 -20 1 -11 -5
-18 -15 -18 -19 0 -61 -35 -61 -50 0 -6 5 -10 10 -10 6 0 10 -7 10 -15 0 -8 9
-15 20 -15 20 0 66 -28 100 -59 13 -13 15 -12 18 12 2 16 9 27 19 27 13 0 14
10 7 68 -4 37 -7 86 -6 110 1 26 -4 52 -13 65 -14 20 -15 19 -11 -21z"/>
<path d="M3530 4173 c0 -5 9 -23 20 -41 24 -39 24 -42 5 -42 -9 0 -15 -9 -15
-24 0 -18 7 -25 31 -30 17 -3 35 -6 40 -6 9 0 -6 56 -19 73 -5 7 -12 25 -16
40 -4 15 -11 25 -16 22 -6 -3 -10 -1 -10 4 0 6 -4 11 -10 11 -5 0 -10 -3 -10
-7z"/>
<path d="M3754 4051 c4 -47 9 -106 12 -131 l6 -45 76 2 c43 1 83 2 90 2 11 1
12 23 7 114 -4 61 -8 120 -8 130 -1 16 -11 18 -95 16 l-95 -1 7 -87z m163 39
c2 -18 -4 -20 -57 -20 -32 0 -65 -3 -74 -6 -12 -5 -16 0 -16 20 0 26 1 26 73
26 66 0 73 -2 74 -20z m7 -48 c2 -4 6 -37 7 -72 l3 -65 -77 -2 c-42 -1 -77 2
-77 6 0 10 50 21 96 21 19 0 34 3 34 8 0 4 -30 7 -67 7 l-68 0 -3 39 c-5 62
-1 66 77 66 38 0 72 -3 75 -8z"/>
<path d="M4099 4118 c-5 -42 -7 -55 -13 -74 -8 -27 15 -48 44 -39 25 8 22 26
-7 40 -14 7 -19 16 -13 25 19 36 21 60 6 60 -9 0 -17 -6 -17 -12z"/>
<path d="M3482 3983 c3 -19 98 -60 98 -43 0 17 -5 24 -15 26 -5 1 -27 10 -48
19 -37 15 -38 15 -35 -2z"/>
<path d="M3550 3996 c0 -2 7 -6 15 -10 8 -3 15 -1 15 4 0 6 -7 10 -15 10 -8 0
-15 -2 -15 -4z"/>
<path d="M4147 3939 c-11 -6 -32 -8 -48 -5 -16 3 -29 1 -29 -4 0 -6 7 -10 16
-10 9 0 12 -5 8 -11 -5 -9 1 -10 22 -5 16 4 41 10 57 13 30 6 35 18 11 27 -19
7 -15 8 -37 -5z"/>
<path d="M3493 3927 c2 -7 74 -36 95 -37 1 0 2 6 2 14 0 8 -19 17 -50 23 -34
7 -50 7 -47 0z"/>
<path d="M3510 3890 c0 -15 43 -30 54 -19 12 11 8 15 -26 23 -17 4 -28 2 -28
-4z"/>
<path d="M4132 3879 c-13 -5 -28 -7 -33 -3 -5 3 -9 -1 -9 -8 0 -8 9 -14 20
-14 11 0 20 4 20 8 0 4 13 8 29 8 17 0 33 5 36 10 8 12 -32 12 -63 -1z"/>
<path d="M3838 3853 c6 -2 18 -2 25 0 6 3 1 5 -13 5 -14 0 -19 -2 -12 -5z"/>
<path d="M4091 3828 c24 -20 39 -23 39 -8 0 6 8 10 18 10 9 0 23 4 31 9 9 6
-9 8 -48 7 -60 -1 -61 -1 -40 -18z"/>
<path d="M3811 3700 c0 -8 4 -22 9 -30 12 -18 12 -2 0 25 -6 13 -9 15 -9 5z"/>
<path d="M4010 3640 c-11 -8 -7 -9 15 -4 37 8 45 14 19 14 -10 0 -26 -5 -34
-10z"/>
<path d="M4957 5373 c-4 -3 -7 -23 -7 -44 0 -47 28 -69 54 -43 19 18 21 65 4
82 -13 13 -41 16 -51 5z"/>
<path d="M2209 5354 c-17 -21 0 -49 31 -49 27 0 46 25 37 49 -8 21 -51 21 -68
0z"/>
<path d="M4653 5343 c-24 -9 -13 -23 18 -23 20 0 29 4 27 13 -5 13 -26 18 -45
10z"/>
<path d="M2880 9590 c0 -5 7 -10 15 -10 8 0 15 5 15 10 0 6 -7 10 -15 10 -8 0
-15 -4 -15 -10z"/>
<path d="M6541 9578 c36 -70 159 -216 159 -189 0 7 5 9 10 6 20 -13 8 8 -61
105 -57 79 -76 100 -96 100 -21 0 -23 -2 -12 -22z"/>
<path d="M6723 9525 c6 -65 34 -164 36 -126 1 10 4 11 15 2 11 -9 12 -3 5 36
-4 27 -10 74 -14 106 -6 49 -9 57 -27 57 -20 0 -21 -4 -15 -75z"/>
<path d="M7065 9552 c-87 -29 -124 -141 -78 -243 23 -52 113 -144 173 -178
l40 -22 -1 28 c0 23 -11 35 -62 68 -45 29 -71 55 -94 95 -45 73 -45 126 -2
175 28 31 37 35 79 35 27 0 52 -4 55 -10 11 -18 25 -10 25 14 0 37 -74 57
-135 38z"/>
<path d="M5933 9480 c0 -25 2 -35 4 -22 2 12 2 32 0 45 -2 12 -4 2 -4 -23z"/>
<path d="M7122 9408 c-21 -21 -13 -48 21 -68 17 -11 38 -20 45 -20 17 0 15 37
-5 71 -18 31 -41 37 -61 17z"/>
<path d="M5933 9320 c0 -25 2 -35 4 -22 2 12 2 32 0 45 -2 12 -4 2 -4 -23z"/>
<path d="M6792 9304 c-10 -21 -8 -36 14 -92 31 -79 82 -174 137 -255 21 -32
37 -61 34 -63 -2 -2 -20 3 -40 11 -52 22 -145 19 -211 -6 -72 -28 -124 -73
-161 -140 -28 -50 -30 -61 -30 -159 0 -89 3 -111 22 -146 59 -111 162 -174
283 -174 87 0 124 15 173 70 51 55 67 96 67 167 0 81 -29 136 -86 164 -81 39
-169 6 -206 -77 -23 -53 -16 -85 24 -119 59 -50 141 -17 124 50 -5 20 -13 25
-37 25 -23 0 -32 -5 -36 -20 -4 -16 -8 -18 -19 -9 -21 17 -17 44 12 79 24 28
31 31 77 28 60 -4 86 -31 94 -100 6 -47 -19 -110 -57 -148 -76 -76 -231 -64
-315 25 -45 48 -64 92 -71 163 -22 207 184 350 379 264 59 -26 144 -111 193
-191 l39 -65 3 47 c3 52 -4 66 -84 167 -121 151 -216 308 -284 468 -26 61 -27
62 -38 36z"/>
<path d="M1540 9039 c0 -51 -4 -78 -10 -74 -5 3 -10 1 -10 -4 0 -6 7 -11 15
-11 12 0 15 16 15 85 0 47 -2 85 -5 85 -3 0 -5 -36 -5 -81z"/>
<path d="M4050 8766 c0 -25 5 -46 10 -46 6 0 10 18 10 39 0 22 -4 43 -10 46
-6 4 -10 -12 -10 -39z"/>
<path d="M6520 8461 c0 -11 4 -22 9 -25 4 -3 6 6 3 19 -5 30 -12 33 -12 6z"/>
<path d="M7127 8383 c-4 -3 -7 -11 -7 -17 0 -6 5 -5 12 2 6 6 9 14 7 17 -3 3
-9 2 -12 -2z"/>
<path d="M7005 8269 c-10 -30 0 -33 13 -4 6 14 7 25 2 25 -5 0 -12 -9 -15 -21z"/>
<path d="M6880 8251 c0 -4 11 -6 25 -3 14 2 25 6 25 8 0 2 -11 4 -25 4 -14 0
-25 -4 -25 -9z"/>
<path d="M6961 8174 c0 -11 3 -14 6 -6 3 7 2 16 -1 19 -3 4 -6 -2 -5 -13z"/>
<path d="M6520 8065 c0 -8 4 -15 10 -15 5 0 7 7 4 15 -4 8 -8 15 -10 15 -2 0
-4 -7 -4 -15z"/>
<path d="M6840 8070 l-45 -7 48 -1 c26 -1 47 3 47 8 0 6 -1 9 -2 8 -2 0 -23
-4 -48 -8z"/>
<path d="M6905 8070 c-3 -5 1 -10 10 -10 9 0 13 5 10 10 -3 6 -8 10 -10 10 -2
0 -7 -4 -10 -10z"/>
<path d="M0 6811 c0 -122 4 -221 9 -221 4 0 16 39 25 88 30 153 32 154 77 37
29 -78 34 -85 59 -85 23 0 39 14 92 85 34 46 66 84 71 85 11 0 8 -37 -8 -110
-24 -110 -24 -112 37 -108 l53 3 36 182 c21 101 40 201 44 223 l7 40 -50 0
-51 0 -97 -125 c-53 -69 -100 -125 -104 -125 -5 0 -28 55 -53 123 l-45 122
-51 3 -51 3 0 -220z"/>
<path d="M7165 4950 c3 -5 13 -10 21 -10 8 0 14 5 14 10 0 6 -9 10 -21 10 -11
0 -17 -4 -14 -10z"/>
<path d="M7137 4923 c-3 -5 1 -16 8 -27 13 -17 15 -17 37 4 19 19 20 22 4 16
-10 -3 -24 -2 -31 4 -7 6 -15 7 -18 3z"/>
<path d="M7047 4860 c-3 -11 -2 -20 3 -20 4 0 10 9 13 20 3 11 2 20 -3 20 -4
0 -10 -9 -13 -20z"/>
<path d="M7086 4872 c-3 -5 8 -9 24 -9 17 0 30 4 30 9 0 4 -11 8 -24 8 -14 0
-27 -4 -30 -8z"/>
<path d="M7085 4830 c3 -5 13 -10 21 -10 8 0 14 5 14 10 0 6 -9 10 -21 10 -11
0 -17 -4 -14 -10z"/>
<path d="M7065 4780 c4 -6 11 -8 16 -5 14 9 11 15 -7 15 -8 0 -12 -5 -9 -10z"/>
<path d="M7050 4750 c-8 -5 -10 -10 -5 -10 6 0 17 5 25 10 8 5 11 10 5 10 -5
0 -17 -5 -25 -10z"/>
<path d="M938 3273 c7 -3 16 -2 19 1 4 3 -2 6 -13 5 -11 0 -14 -3 -6 -6z"/>
<path d="M5458 2633 c7 -3 16 -2 19 1 4 3 -2 6 -13 5 -11 0 -14 -3 -6 -6z"/>
<path d="M5460 2602 c1 -9 26 -42 33 -42 11 0 -6 39 -19 44 -8 3 -14 2 -14 -2z"/>
<path d="M5408 2543 c7 -3 16 -2 19 1 4 3 -2 6 -13 5 -11 0 -14 -3 -6 -6z"/>
<path d="M5427 2483 c-4 -3 -7 -11 -7 -17 0 -6 5 -5 12 2 6 6 9 14 7 17 -3 3
-9 2 -12 -2z"/>
<path d="M3718 1663 c7 -3 16 -2 19 1 4 3 -2 6 -13 5 -11 0 -14 -3 -6 -6z"/>
<path d="M3638 1640 c53 -44 171 -50 207 -9 25 27 14 33 -24 12 -20 -12 -34
-14 -39 -8 -4 6 -29 11 -57 11 -27 0 -63 3 -80 7 l-30 7 23 -20z"/>
<path d="M4230 1641 c13 -11 29 -17 34 -14 11 8 -22 33 -43 33 -11 0 -9 -6 9
-19z"/>
<path d="M4300 1510 c0 -15 72 -42 123 -46 41 -4 59 -1 86 16 18 12 32 22 30
24 -2 1 -42 0 -89 -3 -51 -4 -97 -2 -117 5 -18 7 -33 8 -33 4z"/>
</g>
</svg>
